<?xml version="1.0" standalone="no"?><!DOCTYPE svg PUBLIC "-//W3C//DTD SVG 1.1//EN" "http://www.w3.org/Graphics/SVG/1.1/DTD/svg11.dtd"><svg t="1563440910591" class="icon" viewBox="0 0 1024 1024" version="1.1" xmlns="http://www.w3.org/2000/svg" p-id="23160" xmlns:xlink="http://www.w3.org/1999/xlink" width="200" height="200"><defs><style type="text/css"></style></defs><path d="M87.04 801.28c0 23.04 17.92 40.96 40.96 40.96h770.56c23.04 0 40.96-17.92 40.96-40.96v-281.6H696.32v81.92c0 23.04-17.92 40.96-40.96 40.96H371.2c-23.04 0-40.96-17.92-40.96-40.96v-81.92H87.04v281.6z m568.32-220.16v-102.4H371.2v102.4c0 10.24 10.24 20.48 20.48 20.48H634.88c10.24 0 20.48-7.68 20.48-20.48zM766.976 189.44c-10.24-20.48-38.4-35.84-61.44-35.84H334.336c-23.04 0-51.2 15.36-61.44 33.28l-166.4 291.84h814.08l-153.6-289.28z" fill="#F79024" p-id="23161"></path><path d="M248.32 403.456c0-10.24 10.24-20.48 20.48-20.48h486.4c10.24 0 20.48 10.24 20.48 20.48s-10.24 20.48-20.48 20.48h-486.4c-10.24 0-20.48-10.24-20.48-20.48zM716.8 342.016H309.76c-10.24 0-20.48-10.24-20.48-20.48s10.24-20.48 20.48-20.48H716.8c10.24 0 20.48 10.24 20.48 20.48-2.56 10.24-10.24 20.48-20.48 20.48zM675.84 260.096H350.72c-10.24 0-20.48-10.24-20.48-20.48s10.24-20.48 20.48-20.48H675.84c10.24 0 20.48 10.24 20.48 20.48 0 12.8-10.24 20.48-20.48 20.48z" fill="#FFFFFF" p-id="23162"></path></svg>