<?xml version="1.0" standalone="no"?><!DOCTYPE svg PUBLIC "-//W3C//DTD SVG 1.1//EN" "http://www.w3.org/Graphics/SVG/1.1/DTD/svg11.dtd"><svg t="1563440914983" class="icon" viewBox="0 0 1024 1024" version="1.1" xmlns="http://www.w3.org/2000/svg" p-id="23272" xmlns:xlink="http://www.w3.org/1999/xlink" width="200" height="200"><defs><style type="text/css"></style></defs><path d="M439.13266105 81.60821562c-0.68302653 0.27321157-1.03307482 0.87299121-1.22944965 2.10670961l-0.27534353 1.72464357h-11.44495756c-13.02231876 0-13.50043789 0.0875109-13.893178 2.54854228l-0.27534357 1.72037013h-5.04158656c-6.31799209 0-7.12695254 0.27534356-7.48981173 2.54854218l-0.27534357 1.72037014h-5.04158656c-6.31799209 0-7.12695254 0.27534356-7.48980703 2.54854221l-0.27534835 1.72037018h-2.90712793c-4.10669673 0-5.01810626 0.43329523-5.35535321 2.54854227l-0.27534369 1.72037489h-2.90712798c-4.10669673 0-5.01810626 0.43329523-5.35535316 2.54853757l-0.27534357 1.72037476h-2.90713272c-4.0661416 0-5.01810626 0.44183271-5.34467914 2.47596951-0.24119388 1.51759931-0.40127755 1.67768303-2.03413681 2.04053744-1.63926467 0.36285916-1.80148032 0.52721156-2.17287688 2.20703135l-0.40341426 1.81428657h-2.87724704c-4.05333546 0-4.99249403 0.44183271-5.32333084 2.50158168-0.24759931 1.54748031-0.39060341 1.69262592-1.91460824 1.93595178-1.77373137 0.28388098-2.52719867 1.18035239-2.52719871 3.00531774 0 1.06936127-0.0661674 1.09497828-2.96048922 1.09497351-4.12377156 0-5.07360426 0.43542722-5.40017708 2.47597424-0.24119388 1.51759931-0.40127755 1.67768303-2.03413679 2.04053751-1.62432185 0.3607225-1.80361709 0.53788099-2.16007078 2.13872729-0.35432179 1.59657286-0.53788099 1.78013681-2.13445852 2.13445376-1.59657286 0.35432179-1.78013681 0.53788099-2.13445382 2.13445866-0.35432179 1.59657286-0.53788099 1.78013681-2.13445858 2.13445845-1.59657286 0.35432179-1.78013681 0.53788099-2.13445386 2.13445387-0.35432179 1.59657286-0.53788099 1.78013681-2.13445856 2.1344585-1.59657286 0.35432179-1.78013681 0.53788099-2.13445858 2.13445387-0.35432179 1.59657286-0.53788099 1.78013681-2.13445384 2.1344586-1.59657286 0.35432179-1.78013681 0.53788099-2.13445854 2.13445854-0.35432179 1.59657286-0.53788099 1.78013681-2.13445375 2.13445376-1.60084153 0.35645375-1.77800005 0.53574897-2.13872738 2.16007086-0.36285916 1.63285924-0.52294288 1.79294294-2.04054225 2.03413679-2.0320048 0.3244361-2.47596943 1.27853745-2.47596943 5.31906685v2.87724706l-1.81428642 0.40341427c-1.67341436 0.36925989-1.84417219 0.53788099-2.20275796 2.14725996-0.35432179 1.59657286-0.53788099 1.78013681-2.13445848 2.13445861-1.60084153 0.35645375-1.77800005 0.53574897-2.13872729 2.16007078-0.36285916 1.63285924-0.52294288 1.79294294-2.04053752 2.03413679-2.0341368 0.32657279-2.47596943 1.27853745-2.47596951 5.3446791v2.90712797l-1.72037488 0.27534833c-2.11524707 0.33724225-2.5485422 1.24865651-2.54853754 5.35534841v2.90713276l-1.7203748 0.27534354c-2.11524707 0.33724225-2.5485422 1.24865651-2.54854216 5.35535329v2.90712794l-1.7203703 0.27534833c-2.11524707 0.33724225-2.5485422 1.24865651-2.54854214 5.35534852v2.9071327l-1.7203702 0.27534351c-2.27319874 0.36285916-2.5485422 1.17181505-2.54854225 7.4898071v5.04158656l-1.72037016 0.27534353c-2.27319874 0.36285916-2.5485422 1.17181505-2.54854222 7.48981183v5.04158651l-1.72037487 0.27534356c-2.41833954 0.38633476-2.5485422 0.9839823-2.54853757 11.75872421v9.31049897l-1.7203748 0.27534357c-2.64885927 0.42262112-2.57629122-0.53788099-2.45035722 32.5760793 0.12806601 33.52591196-0.08324214 31.2911363 2.97116334 31.29113155H266.98019351v11.49831878c0 13.05006775 0.0917797 13.55593581 2.51651997 13.94440722l1.68835708 0.26893816 0.13874021 5.75023008c0.15368299 6.32866609 0.42262112 6.95832682 2.99464361 6.95832671H275.51801833v5.09494781c0 6.37562196 0.27321157 7.18244583 2.54854225 7.54530506l1.7203702 0.27534357v5.04158654c0 6.31799209 0.27534356 7.12695254 2.54854214 7.48981171l1.7203703 0.27534362v2.90712802c0 4.10669673 0.43329523 5.01810626 2.54854216 5.35535319l1.7203748 0.27534356v2.90713275c0 4.10669673 0.43329523 5.01810626 2.54853754 5.35534846l1.72037488 0.27534828v2.90712805c0 4.10669673 0.43329523 5.01810626 2.54853758 5.35535322l1.72037487 0.27534362v2.90712797c0 4.10669673 0.43329523 5.01810626 2.54854224 5.35535315l1.72037015 0.2753436v2.90713268c0 4.07894778 0.43969599 5.01810626 2.49944966 5.34894783 1.50906196 0.24119388 1.69689465 0.41195165 1.9146083 1.75238784 0.32870471 2.0320048 0.98611914 2.68941438 2.68087696 2.68941435H309.66932214v2.9604939c0 4.16432667 0.42688985 5.07146751 2.54854234 5.41084649l1.72037482 0.27534363v2.90713266c0 4.0661416 0.44183271 5.01810626 2.47596953 5.34467915 1.51759931 0.24119388 1.67768303 0.40127755 2.04053747 2.03413674 0.3607225 1.62432185 0.53788099 1.80361709 2.13872725 2.16007083 1.59657286 0.35432179 1.78013681 0.53788099 2.13445856 2.13445381 0.35859045 1.60937902 0.52934363 1.77800005 2.20275793 2.14726469l1.81428644 0.40341425v2.87724712c0 4.04052466 0.44396463 4.99463078 2.47596949 5.3190668 1.51759931 0.24119388 1.67768303 0.40127755 2.04054214 2.03413686 0.3607225 1.63072722 0.53361233 1.80361709 2.16433956 2.16433942 1.6264538 0.3607225 1.79294294 0.52721156 2.02986814 2.0149253 0.27961222 1.74598711 1.18462116 2.50158177 3.0010443 2.50158172 1.06936127 0 1.09497828 0.0661674 1.09497825 2.96049394 0 4.12377156 0.43542722 5.07360426 2.47596946 5.40017229 1.51759931 0.24119388 1.67768303 0.40127755 2.04054227 2.0341416 0.3607225 1.62432185 0.53788099 1.80361709 2.13872255 2.16006609 1.59657286 0.35432179 1.78013681 0.53788099 2.13445853 2.13445846 0.35645375 1.60084153 0.53574897 1.77800005 2.15793408 2.13872731 1.57949804 0.35005296 1.79721169 0.55069188 2.00852454 1.85270483 0.3244361 2.00425589 0.98611914 2.66380212 2.67660834 2.66380219H356.62737264v2.96049391c0 4.12377156 0.43542722 5.07360426 2.47596947 5.40017236 1.51759931 0.24119388 1.67768303 0.40127755 2.04053755 2.03414148 0.3607225 1.62432185 0.53788099 1.80361709 2.13872723 2.1600661 1.59657286 0.35432179 1.78013681 0.53788099 2.13445861 2.13445856 0.35432179 1.59657286 0.53788099 1.78013681 2.13445381 2.13445857 1.59657286 0.35432179 1.78013681 0.53788099 2.13445849 2.13445385 0.35432179 1.59657286 0.53788099 1.78013681 2.13445395 2.13445855 1.59657286 0.35432179 1.78013681 0.53788099 2.13445851 2.13445383 0.35432179 1.59657286 0.53788099 1.78013681 2.13445852 2.13445851 1.59657286 0.35432179 1.78013681 0.53788099 2.13445387 2.13445862 0.35432179 1.59657286 0.53788099 1.78013681 2.13445856 2.1344538 1.59657286 0.35432179 1.78013681 0.53788099 2.1344538 2.13445857 0.35432179 1.59657286 0.53788099 1.78013681 2.13445855 2.13445386 1.59657286 0.35432179 1.78013681 0.53788099 2.13445862 2.13445849 0.35432179 1.59657286 0.53788099 1.78013681 2.13445383 2.13445854 1.59657286 0.35432179 1.78013681 0.53788099 2.13445853 2.13445393 0.35432179 1.59657286 0.53788099 1.78013681 2.13445385 2.13445851 1.59657286 0.35432179 1.78013681 0.53788099 2.13445857 2.13445385 0.35432179 1.59657286 0.53788099 1.78013681 2.13445849 2.13445851 1.59657286 0.35432179 1.78013681 0.53788099 2.13445387 2.13445857 0.35432179 1.59657286 0.53788099 1.78013681 2.13445852 2.13445389 1.59657286 0.35432179 1.78013681 0.53788099 2.13445393 2.13445849 0.35432179 1.59657286 0.53788099 1.78013681 2.13445845 2.13445392 1.59657286 0.35432179 1.78013681 0.53788099 2.13445864 2.13445843 0.35432179 1.59657286 0.53788099 1.78013681 2.13445382 2.13445862 1.59657286 0.35432179 1.78013681 0.53788099 2.13445863 2.13445385 0.35432179 1.59657286 0.53788099 1.78013681 2.13445369 2.13445852 1.59657286 0.35432179 1.78013681 0.53788099 2.13445865 2.13445385 0.35645375 1.60084153 0.53574897 1.77800005 2.16007078 2.13872726 1.6264538 0.3607225 1.79294294 0.52721156 2.02986816 2.01492527 0.27961222 1.74598711 1.18462116 2.50158177 3.00104431 2.50158644 0.89007074 0 1.09497828 0.20490752 1.0949782 1.09497354 0 1.81642319 0.75559935 2.72143203 2.50158173 3.00104904 1.48771846 0.23692515 1.65420276 0.40341429 2.01492536 2.02986806 0.3607225 1.62432185 0.53788099 1.80361709 2.1387272 2.16007088 1.59657286 0.35432179 1.78013681 0.53788099 2.13445854 2.13445377 0.35432179 1.59657286 0.53788099 1.78013681 2.13445384 2.13445861 1.59657286 0.35432179 1.78013681 0.53788099 2.13445851 2.13445377 0.35432179 1.59657286 0.53788099 1.78013681 2.13445856 2.13445858 1.59657286 0.35432179 1.78013681 0.53788099 2.13445383 2.13445855 0.35432179 1.59657286 0.53788099 1.78013681 2.13445861 2.13445386 1.59657286 0.35432179 1.78013681 0.53788099 2.13445378 2.13445858 0.35432179 1.59657286 0.53788099 1.78013681 2.13445863 2.1344538 1.59657286 0.35432179 1.78013681 0.53788099 2.13445845 2.13445862 0.35432179 1.59657286 0.53788099 1.78013681 2.13445391 2.13445851 1.59657286 0.35432179 1.78013681 0.53788099 2.13445856 2.13445383 0.35432179 1.59657286 0.53788099 1.78013681 2.13445382 2.13445859 1.59657286 0.35432179 1.78013681 0.53788099 2.13445851 2.13445382 0.35432179 1.59657286 0.53788099 1.78013681 2.13445862 2.13445853 1.59657286 0.35432179 1.78013681 0.53788099 2.13445383 2.13445861 0.35432179 1.59657286 0.53788099 1.78013681 2.13445856 2.13445383 1.59657286 0.35432179 1.78013681 0.53788099 2.1344539 2.13445856 0.35432179 1.59657286 0.53788099 1.78013681 2.13445848 2.13445376 1.59657286 0.35432179 1.78013681 0.53788099 2.13445855 2.13445864 0.35432179 1.59657286 0.53788099 1.78013681 2.13445379 2.1344585 1.59657286 0.35432179 1.78013681 0.53788099 2.13445858 2.13445388 0.35432179 1.59657286 0.53788099 1.78013681 2.13445383 2.13445857 1.59657286 0.35432179 1.78013681 0.53788099 2.13445857 2.13445384 0.35432179 1.59657286 0.53788099 1.78013681 2.13445391 2.13445854 1.59657286 0.35432179 1.78013681 0.53788099 2.13445856 2.13445378 0.35645375 1.60084153 0.53574897 1.77800005 2.16007077 2.13872725 1.63285924 0.36285916 1.79294294 0.52294288 2.03413684 2.04054226 0.32657279 2.04054228 1.27640543 2.47596943 5.40017696 2.4759695 2.89432186 0 2.96048928 0.02561231 2.96048927 1.09497352 0 1.81642319 0.75559935 2.72143203 2.50158168 3.00104907 1.48771846 0.23692515 1.65420276 0.40341429 2.01493001 2.02986807 0.3607225 1.62432185 0.53788099 1.80361709 2.1387225 2.1600708 1.59657286 0.35432179 1.78013681 0.53788099 2.13445859 2.13445393 0.35432179 1.59657286 0.53788099 1.78013681 2.13445851 2.13445844 1.59657286 0.35432179 1.78013681 0.53788099 2.13445388 2.1344538 0.35432179 1.59657286 0.53788099 1.78013681 2.1344585 2.13445861 1.59657286 0.35432179 1.78013681 0.53788099 2.13445393 2.1344586 0.35432179 1.59657286 0.53788099 1.78013681 2.13445858 2.13445384 1.59657286 0.35432179 1.78013681 0.53788099 2.13445855 2.13445853 0.35432179 1.59657286 0.53788099 1.78013681 2.13445383 2.1344539 1.59657286 0.35432179 1.78013681 0.53788099 2.13445848 2.13445852 0.35432179 1.59657286 0.53788099 1.78013681 2.13445385 2.1344585 1.59657286 0.35432179 1.78013681 0.53788099 2.13445856 2.13445386 0.35432179 1.59657286 0.53788099 1.78013681 2.13445852 2.13445853 1.59657286 0.35432179 1.78013681 0.53788099 2.13445385 2.13445387 0.35645375 1.60084153 0.53574897 1.77800005 2.16007086 2.13872728 1.63285924 0.36285916 1.79294294 0.52294288 2.03413679 2.04054227 0.32657279 2.04054228 1.27640543 2.47596943 5.40017704 2.47596937H544.45955571v1.44288993c0 1.69048915 0.65954631 2.35217211 2.6638021 2.6766082 1.30201775 0.21131293 1.50265644 0.42902657 1.85270959 2.00852463 0.3607225 1.6221851 0.53788099 1.80148032 2.13872726 2.15793868 1.59657286 0.35432179 1.78013681 0.53788099 2.13445383 2.13445394 0.35432179 1.59657286 0.53788099 1.78013681 2.13445855 2.13445856 1.59657286 0.35432179 1.78013681 0.53788099 2.13445385 2.13445383 0.35432179 1.59657286 0.53788099 1.78013681 2.13445854 2.13445853 1.59657286 0.35432179 1.78013681 0.53788099 2.13445848 2.13445854 0.35432179 1.59657286 0.53788099 1.78013681 2.13445393 2.13445386 1.59657286 0.35432179 1.78013681 0.53788099 2.13445853 2.1344585 0.35645375 1.60084153 0.53574897 1.77800005 2.16007085 2.13872261 1.63285924 0.36285916 1.79294294 0.52294288 2.03413679 2.0405422 0.32657279 2.04054228 1.27640543 2.47596943 5.40017235 2.47596948 2.89432186 0 2.96048928 0.02561231 2.96049392 1.09497826 0 1.81642319 0.75559935 2.72143203 2.50158173 3.00104433 1.48771846 0.23692515 1.65420276 0.40341429 2.01492997 2.02986805 0.3607225 1.62432185 0.53788099 1.80361709 2.13872253 2.16007085 1.59657286 0.35432179 1.78013681 0.53788099 2.13445864 2.13445851 0.35432179 1.59657286 0.53788099 1.78013681 2.13445377 2.13445392 1.59657286 0.35432179 1.78013681 0.53788099 2.13445849 2.13445854 0.35432179 1.59657286 0.53788099 1.78013681 2.13445863 2.13445382 1.59657286 0.35432179 1.78013681 0.53788099 2.13445382 2.13445857 0.35432179 1.59657286 0.53788099 1.78013681 2.13445855 2.13445853 1.59657286 0.35432179 1.78013681 0.53788099 2.13445379 2.13445386 0.35432179 1.59657286 0.53788099 1.78013681 2.13445862 2.13445853 1.59657286 0.35432179 1.78013681 0.53788099 2.13445855 2.13445383 0.35645375 1.60084153 0.53574897 1.77800005 2.16006608 2.13872732 1.63285924 0.36285916 1.79294294 0.52294288 2.03414149 2.04054215 0.32657279 2.04054228 1.27640543 2.47596943 5.40017235 2.47596945 2.89432186 0 2.96048928 0.02561231 2.96049398 1.09497363 0 1.81642319 0.75559935 2.72143203 2.50158175 3.00104908 1.48771846 0.23692515 1.65420276 0.40341429 2.01492524 2.029868 0.3607225 1.62432185 0.53788099 1.80361709 2.13872724 2.16007077 1.59657286 0.35432179 1.78013681 0.53788099 2.13445851 2.13445389 0.35432179 1.59657286 0.53788099 1.78013681 2.1344539 2.1344586 1.59657286 0.35432179 1.78013681 0.53788099 2.13445854 2.13445383 0.35645375 1.60084153 0.53574897 1.77800005 2.16007083 2.13872724 1.63285924 0.36285916 1.79294294 0.52294288 2.03413675 2.04054225 0.33724225 2.1131103 1.25292525 2.47596943 6.22620774 2.47596947s5.88896549-0.36285916 6.22621241-2.47596947c0.24119388-1.51759931 0.40127755-1.67768303 2.03413676-2.04054225 1.62432185-0.3607225 1.80361709-0.53788099 2.16007087-2.13872724 0.35432179-1.59657286 0.53788099-1.78013681 2.13445377-2.13445383 1.59657286-0.35432179 1.78013681-0.53788099 2.13445855-2.1344586 0.35432179-1.59657286 0.53788099-1.78013681 2.1344539-2.13445389 1.60084153-0.35645375 1.77800005-0.53574897 2.1387272-2.16007077 0.3607225-1.6264538 0.52721156-1.79294294 2.01492532-2.029868 1.74598711-0.27961222 2.50158177-1.18462116 2.50158639-3.00104908 0-1.06936127 0.0661674-1.09497828 2.96048927-1.09497363 4.12377156 0 5.07360426-0.43542722 5.40017705-2.47596945 0.24119388-1.51759931 0.40127755-1.67768303 2.03413685-2.04054215 1.62432185-0.3607225 1.80361709-0.53788099 2.16007076-2.13872732 0.35432179-1.59657286 0.53788099-1.78013681 2.13445383-2.13445383 1.59657286-0.35432179 1.78013681-0.53788099 2.13445859-2.13445853 0.35432179-1.59657286 0.53788099-1.78013681 2.1344585-2.13445386 1.59657286-0.35432179 1.78013681-0.53788099 2.13445387-2.13445853 0.35432179-1.59657286 0.53788099-1.78013681 2.13445847-2.13445857 1.59657286-0.35432179 1.78013681-0.53788099 2.13445391-2.13445382 0.35432179-1.59657286 0.53788099-1.78013681 2.13445851-2.13445854 1.59657286-0.35432179 1.78013681-0.53788099 2.13445862-2.13445392 0.35432179-1.59657286 0.53788099-1.78013681 2.13445383-2.13445851 1.60084153-0.35645375 1.77800005-0.53574897 2.13872726-2.16007085 0.3607225-1.6264538 0.52721156-1.79294294 2.01492528-2.02986805 1.74598711-0.27961222 2.50158177-1.18462116 2.50158649-3.00104433 0-1.06296059 0.08324214-1.09711029 2.88151568-1.13766531 4.33721642-0.06403535 4.95193898-0.3329735 5.38096544-2.35857765 0.3351102-1.57949804 0.51226868-1.75452458 2.1344539-2.11524698 1.6221851-0.3607225 1.80148032-0.53788099 2.15793883-2.13872261 0.35432179-1.59657286 0.53788099-1.78013681 2.13445378-2.1344585 1.59657286-0.35432179 1.78013681-0.53788099 2.13445858-2.13445386 0.35432179-1.59657286 0.53788099-1.78013681 2.13445386-2.13445854 1.59657286-0.35432179 1.78013681-0.53788099 2.13445852-2.13445853 0.35432179-1.59657286 0.53788099-1.78013681 2.13445863-2.13445383 1.59657286-0.35432179 1.78013681-0.53788099 2.13445374-2.13445856 0.35432179-1.59657286 0.53788099-1.78013681 2.13445862-2.13445394 1.59657286-0.35432179 1.78013681-0.53788099 2.13445378-2.13445847 0.35432179-1.59657286 0.53788099-1.78013681 2.13445863-2.13445855 1.59657286-0.35432179 1.78013681-0.53788099 2.1344585-2.1344539 0.35432179-1.59657286 0.53788099-1.78013681 2.13445388-2.13445845 1.60084153-0.35645375 1.77800005-0.53574897 2.13872724-2.16007088 0.3607225-1.6264538 0.52721156-1.79294294 2.01492521-2.02986808 1.74598711-0.27961222 2.50158177-1.18462116 2.50158644-3.00104434 0-1.06936127 0.0661674-1.09497828 2.9604893-1.09497822 4.12377156 0 5.07360426-0.43542722 5.40017704-2.47596943 0.24119388-1.51759931 0.40127755-1.67768303 2.0341368-2.04053756 1.62432185-0.3607225 1.80361709-0.53788099 2.16007081-2.13872724 0.35432179-1.59657286 0.53788099-1.78013681 2.13445382-2.13445852 1.59657286-0.35432179 1.78013681-0.53788099 2.1344585-2.1344539 0.35432179-1.59657286 0.53788099-1.78013681 2.1344539-2.13445853 1.59657286-0.35432179 1.78013681-0.53788099 2.13445858-2.13445384 0.35432179-1.59657286 0.53788099-1.78013681 2.1344585-2.1344586 1.59657286-0.35432179 1.78013681-0.53788099 2.13445391-2.13445861 0.35432179-1.59657286 0.53788099-1.78013681 2.13445854-2.1344538 1.59657286-0.35432179 1.78013681-0.53788099 2.13445379-2.13445844 0.35432179-1.59657286 0.53788099-1.78013681 2.13445854-2.13445393 1.59657286-0.35432179 1.78013681-0.53788099 2.13445858-2.13445853 0.35432179-1.59657286 0.53788099-1.78013681 2.13445382-2.13445846 1.59657286-0.35432179 1.78013681-0.53788099 2.13445853-2.13445397 0.35432179-1.59657286 0.53788099-1.78013681 2.13445389-2.1344585 1.60084153-0.35645375 1.77800005-0.53574897 2.13872723-2.16007086 0.3607225-1.6264538 0.52721156-1.79294294 2.01492526-2.02986804 1.72890756-0.27748026 2.50158177-1.18462116 2.50158643-2.94554641 0-0.89433949 0.24546258-1.07149797 1.76946261-1.27640553 2.0127933-0.26894278 2.48450689-0.789749 2.49304436-2.75558636L796.32544352 619.05373109h2.96048923c4.12377156 0 5.07360426-0.43542722 5.40017706-2.47596949 0.24119388-1.51759931 0.40127755-1.67768303 2.03413679-2.04053745 1.62432185-0.3607225 1.80361709-0.53788099 2.16007071-2.13872729 0.35432179-1.59657286 0.53788099-1.78013681 2.1344586-2.13445864 1.59657286-0.35432179 1.78013681-0.53788099 2.13445382-2.13445376 0.35432179-1.59657286 0.53788099-1.78013681 2.13445854-2.13445856 1.59657286-0.35432179 1.78013681-0.53788099 2.1344539-2.13445383 0.35432179-1.59657286 0.53788099-1.78013681 2.13445859-2.13445861 1.59657286-0.35432179 1.78013681-0.53788099 2.1344538-2.13445853 0.35432179-1.59657286 0.53788099-1.78013681 2.13445856-2.13445382 1.59657286-0.35432179 1.78013681-0.53788099 2.13445849-2.13445859 0.35432179-1.59657286 0.53788099-1.78013681 2.13445385-2.13445383 1.59657286-0.35432179 1.78013681-0.53788099 2.13445856-2.13445851 0.35432179-1.59657286 0.53788099-1.78013681 2.13445386-2.13445862 1.59657286-0.35432179 1.78013681-0.53788099 2.13445854-2.1344538 0.35432179-1.59657286 0.53788099-1.78013681 2.13445857-2.13445858 1.59657286-0.35432179 1.78013681-0.53788099 2.13445381-2.13445386 0.35432179-1.59657286 0.53788099-1.78013681 2.1344586-2.13445855 1.59657286-0.35432179 1.78013681-0.53788099 2.13445379-2.13445858 0.35432179-1.59657286 0.53788099-1.78013681 2.13445852-2.13445377 1.59657286-0.35432179 1.78013681-0.53788099 2.13445862-2.13445861 0.35432179-1.59657286 0.53788099-1.78013681 2.13445384-2.13445377 1.59657286-0.35432179 1.78013681-0.53788099 2.13445851-2.13445857 0.35432179-1.59657286 0.53788099-1.78013681 2.13445381-2.13445856 1.59657286-0.35432179 1.78013681-0.53788099 2.13445864-2.13445386 0.35432179-1.59657286 0.53788099-1.78013681 2.13445859-2.13445855 1.59657286-0.35432179 1.78013681-0.53788099 2.13445373-2.13445384 0.35432179-1.59657286 0.53788099-1.78013681 2.13445859-2.13445853 1.59657286-0.35432179 1.78013681-0.53788099 2.13445389-2.13445858 0.35432179-1.59657286 0.53788099-1.78013681 2.13445848-2.13445385 1.59657286-0.35432179 1.78013681-0.53788099 2.13445861-2.13445852 0.35432179-1.59657286 0.53788099-1.78013681 2.1344538-2.13445385 1.59657286-0.35432179 1.78013681-0.53788099 2.13445863-2.13445862 0.35432179-1.59657286 0.53788099-1.78013681 2.13445376-2.13445843 1.59657286-0.35432179 1.78013681-0.53788099 2.13445855-2.13445392 0.35432179-1.59657286 0.53788099-1.78013681 2.13445858-2.13445849 1.59657286-0.35432179 1.78013681-0.53788099 2.13445387-2.13445389 0.35432179-1.59657286 0.53788099-1.78013681 2.13445855-2.13445857 1.59657286-0.35432179 1.78013681-0.53788099 2.13445381-2.13445851 0.35432179-1.59657286 0.53788099-1.78013681 2.13445859-2.13445385 1.59657286-0.35432179 1.78013681-0.53788099 2.13445851-2.13445851 0.35432179-1.59657286 0.53788099-1.78013681 2.13445387-2.13445393 1.59657286-0.35432179 1.78013681-0.53788099 2.13445852-2.13445854 0.35432179-1.59657286 0.53788099-1.78013681 2.13445389-2.13445849 1.59657286-0.35432179 1.78013681-0.53788099 2.13445851-2.13445386 0.35432179-1.59657286 0.53788099-1.78013681 2.13445857-2.13445857 1.59657286-0.35432179 1.78013681-0.53788099 2.13445379-2.1344538 0.35432179-1.59657286 0.53788099-1.78013681 2.13445856-2.13445862 1.59657286-0.35432179 1.78013681-0.53788099 2.13445385-2.13445851 0.35432179-1.59657286 0.53788099-1.78013681 2.13445863-2.13445383 1.59657286-0.35432179 1.78013681-0.53788099 2.13445847-2.13445855 0.35432179-1.59657286 0.53788099-1.78013681 2.13445395-2.13445385 1.60084153-0.35645375 1.77800005-0.53574897 2.13872722-2.16007082 0.36285916-1.63285924 0.52294288-1.79294294 2.04054227-2.03413683 2.04054228-0.32657279 2.47596943-1.27640543 2.4759694-5.40017702 0-2.89432186 0.02561231-2.96048928 1.09497352-2.96048922 1.81642319 0 2.72143203-0.75559935 3.00104908-2.50158646 0.23692515-1.48771846 0.40341429-1.65420276 2.02986809-2.01492523 1.62432185-0.3607225 1.80361709-0.53788099 2.16006618-2.13872734 0.35432179-1.59657286 0.53788099-1.78013681 2.13445848-2.13445376 1.59657286-0.35432179 1.78013681-0.53788099 2.13445855-2.13445863 0.35432179-1.59657286 0.53788099-1.78013681 2.13445381-2.13445846 1.60084153-0.35645375 1.77800005-0.53574897 2.13872726-2.16006609 0.36285916-1.63285924 0.52294288-1.79294294 2.04053756-2.0341416 2.0320048-0.3244361 2.47596943-1.27853745 2.47597417-5.31906206v-2.87724702l1.8142865-0.40341429c1.67341436-0.36925989 1.84417219-0.53788099 2.20275789-2.14726469 0.35432179-1.59657286 0.53788099-1.78013681 2.13445856-2.13445376 1.60084153-0.35645375 1.77800005-0.53574897 2.13872254-2.16007085 0.36285916-1.63285924 0.52294288-1.79294294 2.04054214-2.03413686 2.0320048-0.3244361 2.47596943-1.27853745 2.47596956-5.3190668v-2.87724712l1.81428644-0.40341425c1.67981505-0.37139657 1.84417219-0.53361233 2.20703129-2.17287694 0.36285916-1.63285924 0.52294288-1.79294294 2.04053752-2.03413678 2.04054228-0.32657279 2.47596943-1.27640543 2.47597417-5.40017703V439.7593728h1.44288994c1.6947579 0 2.35217211-0.65741425 2.68087691-2.6894143 0.21771365-1.34044089 0.40554626-1.51119397 1.91460825-1.75238794 2.05761701-0.33084146 2.49944978-1.27000005 2.49944983-5.32333557v-2.87724696l1.81428637-0.4034143c1.67981505-0.37139657 1.84417219-0.53361233 2.20703133-2.17287695 0.36285916-1.63285924 0.52294288-1.79294294 2.04053758-2.03413668 2.0341368-0.32657279 2.47596943-1.27853745 2.47596936-5.34467919v-2.90713268l1.72037495-0.2753436c2.11524707-0.33724225 2.5485422-1.24865651 2.54854221-5.35535315v-2.90712797l1.7203701-0.27534362c2.11524707-0.33724225 2.5485422-1.24865651 2.54854235-5.35535322v-2.90712805l1.72037009-0.27534828c2.11524707-0.33724225 2.5485422-1.24865651 2.54854226-5.35534846v-2.90713275l1.72037019-0.27534356c2.11524707-0.33724225 2.5485422-1.24865651 2.54854222-5.35535319v-2.90712802l1.7203748-0.27534362c2.27319874-0.36285916 2.5485422-1.17181505 2.54853759-7.48981171v-5.04158654l1.72037484-0.27534357c2.27319874-0.36285916 2.5485422-1.17181505 2.54853752-7.48980703v-5.04158659l1.72037489-0.27534824c2.27319874-0.36285916 2.5485422-1.17181505 2.5485422-7.48980711v-5.04158657l1.72037017-0.2753436c2.46102666-0.39274014 2.5485422-0.87085925 2.54854219-13.8931779v-11.44495754l1.72037025-0.27534357c2.59763473-0.4140837 2.5485422 0.12379727 2.54214143-27.71592-0.00640541-28.07024169 0.06830414-27.30396825-2.67234418-27.532356l-1.5901675-0.13233936v-11.47270177c0-13.05433646-0.0875109-13.53031878-2.54854219-13.92306378l-1.72037017-0.2753435v-7.17604515c0-8.54209351-0.18569587-9.2464683-2.5485422-9.62426561l-1.72037489-0.27534353v-5.04158656c0-6.31799209-0.27534356-7.12695254-2.54853752-7.4898071l-1.72037484-0.27534351v-2.9071327c0-4.10669673-0.43329523-5.01810626-2.54853759-5.35534852l-1.7203748-0.27534833v-2.90712794c0-4.10669673-0.43329523-5.01810626-2.54854222-5.35535329l-1.72037019-0.27534354v-2.90713276c0-4.0661416-0.44183271-5.01810626-2.47596943-5.34467904-1.51759931-0.24119388-1.67768303-0.40127755-2.04054228-2.03413677-0.36285916-1.63926467-0.52721156-1.80148032-2.20702666-2.17287698l-1.81428643-0.40340957v-2.877247c0-4.04052466-0.44396463-4.99463078-2.47597416-5.31906682-1.51759931-0.24119388-1.67768303-0.40127755-2.04053764-2.03413681-0.36285916-1.63926467-0.52721156-1.80148032-2.20703118-2.17287696l-1.8142866-0.40341427v-2.87724706c0-4.04052466-0.44396463-4.99463078-2.47596933-5.31906685-1.51759931-0.24119388-1.67768303-0.40127755-2.04054227-2.03413679-0.3607225-1.62432185-0.53788099-1.80361709-2.1387226-2.16007086-1.59657286-0.35432179-1.78013681-0.53788099-2.13445851-2.13445376-0.35432179-1.59657286-0.53788099-1.78013681-2.13445383-2.13445854-1.59657286-0.35432179-1.78013681-0.53788099-2.13445856-2.1344586-0.35432179-1.59657286-0.53788099-1.78013681-2.13445849-2.13445387-1.59657286-0.35432179-1.78013681-0.53788099-2.13445389-2.1344585-0.35432179-1.59657286-0.53788099-1.78013681-2.13445855-2.13445387-1.59657286-0.35432179-1.78013681-0.53788099-2.1344539-2.13445845-0.35432179-1.59657286-0.53788099-1.78013681-2.13445851-2.13445866-1.59657286-0.35432179-1.78013681-0.53788099-2.13445854-2.13445376-0.35645375-1.60084153-0.53574897-1.77800005-2.16006612-2.13872729-1.63285924-0.36285916-1.79294294-0.52294288-2.03414151-2.04053751-0.3244361-2.0320048-1.27853745-2.47596943-5.31906209-2.47597424h-2.87724713l-0.40341427-1.81428648c-0.37139657-1.67981505-0.53361233-1.84417219-2.1728769-2.20702653-1.63285924-0.36285916-1.79294294-0.52294288-2.03413674-2.04054231-0.3244361-2.0320048-1.27853745-2.47596943-5.31906682-2.47596939h-2.87724714l-0.40341428-1.81428657c-0.37139657-1.67981505-0.53361233-1.84417219-2.17287692-2.20703135-1.63285924-0.36285916-1.79294294-0.52294288-2.03413683-2.04053744-0.32657279-2.0341368-1.27853745-2.47596943-5.34467907-2.47596951h-2.90712804l-0.27534821-1.72037476c-0.33724225-2.11524707-1.24865651-2.5485422-5.35534851-2.54853757h-2.90713274l-0.27534356-1.72037489c-0.36285916-2.27533069-1.17181505-2.5485422-7.51968808-2.54854227h-5.06933552l-0.13233938-1.59016737c-0.1728898-2.07896061-1.33403542-2.66380212-5.30625602-2.67233962L881.81256466 93.97739353l-0.27534354-1.72037014c-0.36285916-2.27319874-1.17181505-2.5485422-7.48980703-2.54854218h-5.0415866l-0.2753436-1.72037013c-0.39274014-2.46102666-0.87085925-2.5485422-13.89318263-2.54854228h-11.4449529l-0.27534827-1.72037491C842.69651573 81.08954619 843.85765657 81.17065632 806.99772676 81.17065632c-36.85992981 0-35.69878883-0.08111021-36.11927794 2.54853757l-0.27534357 1.72037491-9.23152545 0.04268706c-11.16320848 0.05122919-11.24431866 0.06830414-11.74378134 2.43114569l-0.38206603 1.79507966h-5.03304909c-6.31372334 0-7.1226839 0.27534356-7.48553841 2.54854218l-0.2753435 1.72037014h-5.04158659c-6.31799209 0-7.12695254 0.27534356-7.48981178 2.54854221l-0.27534364 1.72037018-3.04159938 0.00640535c-3.97222529 0.00853741-5.13336618 0.59337899-5.30626072 2.67233959l-0.13233462 1.59017222h-2.93488178c-4.1365777 0-5.04799193 0.43115854-5.38523414 2.54853757l-0.27534359 1.72037476h-2.90712795c-4.10669673 0-5.01810626 0.43329523-5.35535327 2.54853761l-0.27534361 1.72037482h-2.90713271c-4.0661416 0-5.01810626 0.44183271-5.34467908 2.47596946-0.24119388 1.51759931-0.40127755 1.67768303-2.03413679 2.04054224-1.63926467 0.36285916-1.80148032 0.52721156-2.17287694 2.20702657l-0.40340954 1.81428656h-2.87725172c-4.04052466 0-4.99463078 0.44396463-5.31906215 2.47596942-0.24119388 1.51759931-0.40127755 1.67768303-2.03413691 2.04054226-1.63926467 0.36285916-1.80148032 0.52721156-2.17287688 2.20702659l-0.40341425 1.81429118h-2.87724703c-4.04052466 0-4.99463078 0.44396463-5.31906683 2.47596941-0.24119388 1.51759931-0.40127755 1.67768303-2.0341368 2.04053757-1.62432185 0.3607225-1.80361709 0.53788099-2.1600708 2.13872735-0.35432179 1.59657286-0.53788099 1.78013681-2.13445389 2.13445845-1.59657286 0.35432179-1.78013681 0.53788099-2.1344585 2.13445387-0.35432179 1.59657286-0.53788099 1.78013681-2.13445855 2.1344585-1.59657286 0.35432179-1.78013681 0.53788099-2.1344539 2.13445387-0.35432179 1.59657286-0.53788099 1.78013681-2.13445853 2.1344586-1.59657286 0.35432179-1.78013681 0.53788099-2.13445382 2.13445854-0.35432179 1.59657286-0.53788099 1.78013681-2.13445852 2.13445376-1.60937902 0.35859045-1.77800005 0.52934363-2.14726468 2.20276265l-0.40340963 1.81428647h-3.94020762l-0.40341418-1.81428647c-0.36925989-1.67341436-0.53788099-1.84417219-2.14726476-2.20276265-1.59657286-0.35432179-1.78013681-0.53788099-2.13445381-2.13445376-0.35432179-1.59657286-0.53788099-1.78013681-2.13445854-2.13445854-1.59657286-0.35432179-1.78013681-0.53788099-2.13445393-2.1344586-0.35432179-1.59657286-0.53788099-1.78013681-2.13445847-2.13445387-1.59657286-0.35432179-1.78013681-0.53788099-2.13445854-2.1344585-0.35645375-1.60084153-0.53574897-1.77800005-2.16006616-2.13872255-1.63285924-0.36285916-1.79294294-0.52294288-2.0341368-2.04054223-0.3244361-2.0320048-1.27853745-2.47596943-5.31906683-2.47596953h-2.87724697l-0.40341432-1.8142864c-0.36925989-1.67341436-0.53788099-1.84417219-2.14726468-2.20276262-1.59657286-0.35432179-1.78013681-0.53788099-2.13445388-2.13445388-0.35645375-1.60084153-0.53574897-1.77800005-2.16007081-2.13872721-1.63285924-0.36285916-1.79294294-0.52294288-2.03413677-2.04054226-0.3244361-2.0320048-1.27853745-2.47596943-5.31906685-2.47596942h-2.87724702l-0.40341432-1.81428656c-0.37139657-1.67981505-0.53361233-1.84417219-2.17287687-2.20702657-1.63285924-0.36285916-1.79294294-0.52294288-2.03413688-2.04054224-0.32657279-2.0341368-1.27853745-2.47596943-5.34467909-2.47596946h-2.90712799l-0.27534827-1.72037482c-0.33724225-2.11524707-1.24865651-2.5485422-5.35534854-2.54853761h-2.90713263l-0.27534368-1.72037476c-0.33937887-2.12164769-1.24652449-2.5485422-5.41084635-2.54853757C565.80412238 102.51522308 565.80412238 102.51522308 565.80412238 101.3156543c0-2.32015446-0.83670482-2.84096063-4.82600489-3.00531296l-3.61577154-0.14727757-0.26893816-1.6798198c-0.35645375-2.22623813-1.19316334-2.50585038-7.48340641-2.50585044h-5.04158654l-0.27534361-1.72037014c-0.36285916-2.27319874-1.17181505-2.5485422-7.48981167-2.54854218h-5.04158661l-0.27534355-1.72037013c-0.38633476-2.41833954-0.9839823-2.5485422-11.75871948-2.54854228h-9.31050361l-0.2753436-1.72037491c-0.21131293-1.32122928-0.52721156-1.81855519-1.36178433-2.13445386-1.39807076-0.53148025-68.32609268-0.50800009-69.64731733 0.02347559" fill="#D81E06" p-id="23273"></path><path d="M749.41649022 86.40007079c0.03628642 0.68088996 0.10459046 0.75133063 0.23905719 0.23906195a1.43435713 1.43435713 0 0 1 0.91141425-0.91141429c0.51226868-0.13447145 0.44183271-0.2027755-0.23906178-0.23905721-0.73851978-0.0384184-0.94983271 0.1728898-0.91140966 0.91140955m140.08225627 8.17710716c0.41622039 0.41622039 0.74279318 1.38312793 0.74278852 2.20488987 0 1.45143203 0.01707489 1.46423809 1.92101363 1.4642381 2.03840548 0 2.16433954-0.16008365 1.50265653-1.90179734-0.40554626-1.0650925-1.33403542-1.6136477-3.75878036-2.22196952-1.09284157-0.27534356-1.11418507-0.251868-0.40767832 0.45463889m-324.36484452 4.33934843c0.36925989 0.36925989 0.67022043 1.32976674 0.67022041 2.13445845 0 1.42368303 0.04695575 1.46423809 1.70756871 1.46423825 1.25506198 0 1.70756394-0.17502652 1.70756399-0.65955105 0-0.85378442-1.9018021-2.75558177-2.75558637-2.7555817-0.36285916 0-0.65954631-0.19210131-0.65954633-0.42688982 0-0.23478845-0.3009605-0.42688985-0.67022041-0.42689459-0.61045385 0-0.61045385 0.06189862 0 0.67022046m148.80151298-0.06830413c-1.39593411 0.50159931-2.54000483 1.90607079-2.554943 3.13338378-0.00426873 0.34791635 0.65954631 0.53361233 1.91460832 0.53361705 1.90393403 0 1.92100896-0.01280605 1.92100889-1.46423825 0-0.80469186 0.3009605-1.76519399 0.67022042-2.13445845 0.82389867-0.82389867 0.21131293-0.84524693-1.95089463-0.06830413M343.82063076 120.23121211c0 0.35218511-0.25400001 0.64033471-0.56562992 0.64033474-0.6872952 0-2.42260825 1.77800005-2.42260823 2.48237484 0 0.29455508 0.6275286 0.50586809 1.49411908 0.5058633 1.41727764 0 1.4941191-0.0747048 1.49411907-1.4642334 0-0.80469186 0.3009605-1.76519399 0.67022046-2.13445861 0.61045385-0.60832177 0.61045385-0.67022043 0-0.67022031a0.65741425 0.65741425 0 0 0-0.67022046 0.64033944m670.21939186 138.31278885c0 1.90393403 0.01280605 1.92100896 1.4642382 1.92101358 0.80469186 0 1.76519399 0.3009605 2.13445385 0.67022052 0.8004231 0.8004231 0.81109261 0.6937006 0.18356391-1.79507965-0.35218511-1.40447147-0.7662687-2.03627347-1.52186806-2.32229126-1.9487579-0.74279318-2.26038785-0.53148025-2.2603879 1.52613681M262.71127647 315.29066945c0 0.36925989 0.28814971 0.67022043 0.6403394 0.67021565 0.35218511 0 0.64033471 0.25400001 0.64033475 0.56563471 0 0.6872952 1.77800005 2.42260825 2.482375 2.42260823 0.29455508 0 0.50586809-0.6275286 0.50586789-1.49412382 0-1.41727764-0.0747048-1.4941191-1.46423808-1.49411912-0.80469186 0-1.76519399-0.3009605-2.13445858-0.67021565-0.60832177-0.61045385-0.67022043-0.61045385-0.67022038 0m751.32874615 1.81214976v1.14193403l1.06722933-1.00319392c0.58697351-0.55069188 1.06722926-1.0650925 1.06722462-1.141934 0-0.07684147-0.48025095-0.13874016-1.06722462-0.13874022-0.87299121 0-1.06722926 0.20917618-1.06722933 1.14193411M271.24910595 353.71088567c0 0.36925989 0.28814971 0.67022043 0.64033474 0.67022038 0.35218511 0 0.64033471 0.25400001 0.64033948 0.56563002 0 0.6872952 1.77800005 2.42260825 2.4823702 2.42260818 0.29455508 0 0.50586809-0.6275286 0.50586796-1.49411906 0-1.41727764-0.0747048-1.4941191-1.46423813-1.49411914-0.80469186 0-1.76519399-0.3009605-2.13445381-0.67022038-0.60832177-0.61045385-0.67022043-0.61045385-0.67022044 0m7.25715055 14.54418688c0.55069188 0.58697351 1.0650925 1.06722926 1.14193415 1.06722927 0.07684147 0 0.13874016-0.48025095 0.13874013-1.06722927 0-0.87299121-0.20917618-1.06722926-1.14193413-1.06722456h-1.14193403l1.00319388 1.06722456m8.53782955 21.34456667c0.55069188 0.58697351 1.0650925 1.06722926 1.14193407 1.06722935 0.07684147 0 0.13874016-0.48025095 0.13874006-1.06722935 0-0.87299121-0.20917618-1.06722926-1.14193864-1.06722452h-1.14193417l1.00319868 1.06722452m18.35632373 36.27936176c0 1.67341436 1.11418507 4.18140147 2.0085246 4.5207804 1.9487579 0.74279318 2.26038785 0.53148025 2.26038776-1.5261368 0-1.90393403-0.01280605-1.92100896-1.46423335-1.92101365-0.80469186 0-1.76519399-0.3009605-2.13445855-0.67021572-0.36925989-0.36925989-0.67022043-0.55069188-0.67022046-0.40341423m660.91743042 13.28272425c-0.30309253 0.32870471-1.21450679 0.59764758-2.02773609 0.59764757-1.47063884 0-1.47704432 0.00853741-1.47703963 1.96796944 0 1.93168304 0.02134358 1.96156409 1.1718151 1.67341444 1.64780203-0.4140837 2.0320048-0.82816746 2.62964774-2.82388591 0.58697351-1.95729539 0.51653747-2.29667425-0.29668712-1.41514554M335.28280607 468.94593158c0 0.35432179 0.19210131 0.76413673 0.42688974 0.90928236 0.23478845 0.14514086 0.42688985 0.60618507 0.42688977 1.02666952 0 0.91354627 1.12912793 1.96583276 2.45462597 2.28814145 0.88579737 0.2155816 0.96050687 0.0875109 0.96050681-1.6478021 0-1.85697829-0.01921153-1.88045855-1.46423806-1.88045851-0.80469186 0-1.76519399-0.3009605-2.13445863-0.67021567-0.58697351-0.58911023-0.67022043-0.59124223-0.6702156-0.02561705m17.22079503 21.70528919c0.60832177 2.42474496 1.15687684 3.35322938 2.22196945 3.75878035 1.74171838 0.66168298 1.9018021 0.53574897 1.90180209-1.50265646 0-1.90393403-0.01280605-1.92100896-1.46423812-1.92101365-0.82176669 0-1.78867422-0.32657279-2.20489464-0.74278852-0.70650683-0.70650683-0.72998241-0.68515859-0.45463878 0.40767828m571.12510575 4.00637959c-0.30309253 0.32870471-1.21450679 0.59764758-2.02773145 0.59764774-1.43862594 0-1.47704432 0.04482375-1.47704423 1.70756403 0 1.25506198 0.17502652 1.70756394 0.65954632 1.70756394 0.83670482 0 2.75558177-1.89326469 2.75558172-2.7192953 0-0.34364764 0.22198242-0.69796933 0.49092518-0.78761703a0.49305719 0.49305719 0 0 0 0.3201674-0.63393403c-0.11312787-0.31376668-0.35645375-0.26894278-0.72144494 0.12807065M415.11148145 556.08726033c0.55069188 0.58697351 1.0650925 1.06722926 1.14193402 1.06722923 0.07684147 0 0.13874016-0.48025095 0.13874011-1.06722923 0-0.87299121-0.20917618-1.06722926-1.14193402-1.06722931h-1.14193406l1.00319395 1.06722931m5.54959126 6.80037979c0 0.36925989 0.28814971 0.67022043 0.6403347 0.6702204 0.35218511 0 0.64033471 0.25400001 0.64033949 0.56562997 0 0.6872952 1.77800005 2.42260825 2.48237019 2.42260825 0.27748026 0 0.50586809 0.28814971 0.50586801 0.64033472 0 0.35218511 0.3009605 0.64033471 0.67022048 0.64033954 0.61045385 0 0.61045385-0.06189862 0-0.67022054-0.36925989-0.36925989-0.67022043-1.32976674-0.67022048-2.13445379 0-1.38312793-0.08111021-1.46423809-1.46423818-1.46423815-0.80469186 0-1.76519399-0.3009605-2.13445849-0.6702204-0.60832177-0.61045385-0.67022043-0.61045385-0.67021572 0m375.66437081 57.63032915c0 0.80469186-0.3009605 1.76519399-0.6702205 2.1344585-0.36925989 0.36925989-1.32976674 0.67022043-2.13445853 0.67021565-1.38312793 0-1.46423809 0.08111021-1.46423343 1.46423824 0 0.80469186-0.3009605 1.76519399-0.67022039 2.13445846-0.61045385 0.60832177-0.61045385 0.67022043 0 0.67022048a0.65741425 0.65741425 0 0 0 0.67022039-0.64033946c0-0.35218511 0.25400001-0.64033471 0.56562995-0.64033475 0.68515859 0 2.42260825-1.77800005 2.42260823-2.4781062 0-0.27534356 0.79828636-0.6275286 1.77159951-0.78334364 3.67553356-0.58697351 4.89430896-3.99570085 1.43008369-3.99570546-1.90393403 0-1.92100896 0.01280605-1.92100892 1.46423818m-302.23906159 12.00204996c0 0.85378442 1.9018021 2.75558177 2.75558176 2.7555818 0.36285916 0 0.65954631 0.19210131 0.65954627 0.42689455 0 0.23478845 0.3009605 0.42688985 0.67022038 0.42688984 0.61045385 0 0.61045385-0.06189862 0-0.67022043-0.36925989-0.36925989-0.67022043-1.32976674-0.67022038-2.13445389 0-1.42368303-0.04695575-1.46423809-1.70756406-1.46423812-1.25506198 0-1.70756394 0.17502652-1.70756397 0.65954625M745.09848529 667.47601493c0 0.80469186-0.3009605 1.76519399-0.6702204 2.13445857-0.61045385 0.60832177-0.61045385 0.67022043 0 0.67022047 0.36925989 0 0.67022043-0.19210131 0.6702204-0.42689461 0-0.23478845 0.29669174-0.42688985 0.65954637-0.42688979 0.36285916 0 1.13125997-0.47171361 1.707564-1.04801775 1.5923041-1.5923041 1.37672254-2.36711028-0.65954628-2.36711498-1.66060822 0-1.70756394 0.04055513-1.70756409 1.46423809m-204.48095213 7.68618184c0 1.7310443 0.82603539 2.6936831 2.71716336 3.16966547 2.48877557 0.6275286 2.59549809 0.61685916 1.79507963-0.18356397-0.36925989-0.36925989-0.67022043-1.32976674-0.67022044-2.13445377 0-1.45143203-0.01707489-1.46423809-1.92100895-1.46423821-1.38526467 0-1.92100896 0.17075783-1.9210136 0.61259048m169.90275375 28.17055885c0 0.3351102-0.3351102 0.69796933-0.74706192 0.80468708-0.56136125 0.14727759-0.51013674 0.20704412 0.21344493 0.2454626 0.69156402 0.03628642 0.96050687-0.18996465 0.96050682-0.80468716 0-0.46958166-0.09604829-0.85378442-0.21344489-0.8537844-0.11739662 0-0.21344489 0.27321157-0.21344494 0.60832188m-135.43767856 2.05974901c0.32230406 1.32549801 1.37459053 2.45462593 2.28813686 2.45462589 0.42048916 0 0.88152863 0.19210131 1.02667415 0.42688991 0.14514086 0.23478845 0.55496054 0.42688985 0.90927758 0.4268898 0.56562993 0 0.56349793-0.08324214-0.02561233-0.6702157-0.36925989-0.36925989-0.67022043-1.32976674-0.67022033-2.13445854 0-1.4450266-0.02348017-1.46423809-1.88045856-1.46423821-1.73531295 0-1.86337897 0.0747048-1.64779737 0.96050685m127.32674368 0.50373136c0 0.80469186-0.3009605 1.76519399-0.67022046 2.13445854-0.61045385 0.60832177-0.61045385 0.67022043 0 0.6702157a0.65741425 0.65741425 0 0 0 0.67022046-0.64033476c0-0.35218511 0.25400001-0.64033471 0.5656299-0.6403395 0.6872952 0 2.42260825-1.77800005 2.42260826-2.4823701 0-0.29455508-0.6275286-0.50586809-1.49411908-0.50586809-1.41727764 0-1.4941191 0.0747048-1.49411908 1.46423821m-88.36650968 33.25270039c0 0.6872952 1.77800005 2.42260825 2.4823749 2.42260817 0.27748026 0 0.50586809 0.28814971 0.50586802 0.64033476 0 0.35218511 0.3009605 0.64033471 0.67021567 0.6403394 0.61045385 0 0.61045385-0.06189862 0-0.67022033-0.36925989-0.36925989-0.67022043-1.32976674-0.67021567-2.13445386 0-1.38953337-0.07684147-1.46423809-1.49411909-1.46423822-0.95623812 0-1.4941191 0.2027755-1.49412383 0.56563008m49.94628859 0.89860814c0 0.80469186-0.3009605 1.76519399-0.67022031 2.13445386-0.61045385 0.60832177-0.61045385 0.67022043 0 0.67022033a0.65741425 0.65741425 0 0 0 0.67022031-0.6403394c0-0.35218511 0.25400001-0.64033471 0.56563004-0.64033476 0.6872952 0 2.42260825-1.77800005 2.42260825-2.48237488 0-0.29455508-0.6275286-0.50586809-1.49411911-0.50586337-1.41727764 0-1.4941191 0.0747048-1.49411918 1.46423822" fill="#FF0000" p-id="23274"></path></svg>