<?xml version="1.0" standalone="no"?><!DOCTYPE svg PUBLIC "-//W3C//DTD SVG 1.1//EN" "http://www.w3.org/Graphics/SVG/1.1/DTD/svg11.dtd"><svg t="1563440919981" class="icon" viewBox="0 0 1024 1024" version="1.1" xmlns="http://www.w3.org/2000/svg" p-id="23390" xmlns:xlink="http://www.w3.org/1999/xlink" width="200" height="200"><defs><style type="text/css"></style></defs><path d="M918.921721 338.938807c0-53.646472-20.831971-104.012415-58.682964-141.866479-37.8213-37.834611-88.203625-58.666581-141.850097-58.666581-53.646472 0-104.028797 20.831971-141.850096 58.682963L149.409442 624.075512l-1.742653 2.645719-2.132753 2.328315c-25.902251 28.211112-40.146544 64.560065-40.146543 102.332219 0 40.434255 15.762715 78.513574 44.376213 107.210009 28.650359 28.647288 66.693842 44.426384 107.13117 44.426384 38.919929 0 75.864783-14.69685 104.061561-41.373158 0 0 70.440239 34.202889 74.736461 38.512422 3.422849 3.409538 7.748764 5.202361 12.561026 5.202362 4.812261 0 9.141248-1.792823 12.531332-5.185979l399.453501-399.387973c37.850993-37.834611 58.682964-88.203625 58.682964-141.847025z" fill="#F4CE73" p-id="23391"></path><path d="M134.037852 742.876926l494.208968-494.063577c37.8213-37.850993 88.203625-58.682964 141.850097-58.682964 41.211384 0 80.451789 12.402323 113.586766 35.251348-6.909178-10.010527-14.661014-19.522421-23.444926-28.309405-37.8213-37.834611-88.203625-58.666581-141.850097-58.666581-53.646472 0-104.028797 20.831971-141.850096 58.682963L149.409442 624.075512l-15.37159 118.801414z" fill="#79CCBF" p-id="23392"></path><path d="M640.066553 342.232646c4.005439 2.566881 7.848081 5.522837 11.337482 9.025549 25.806006 25.727167 25.998496 67.503736 0.873374 93.664006-0.228326 0.145392-0.453581 0.225255-0.581567 0.370646 0 0-333.597197 333.547027-432.489161 432.410322 12.240549 3.132065 24.738093 5.314989 37.689219 5.314989 8.816677 0 17.471579-0.986002 25.998496-2.457325C421.966692 741.862255 701.208889 463.347017 701.208889 463.347017c0.12901-0.161774 0.354264-0.258019 0.612283-0.403411 27.033644-28.098485 26.838082-72.961044-0.968595-100.573183-16.53882-16.55213-39.176924-23.093734-60.786024-20.137777z" fill="#FFFFFF" p-id="23393"></path><path d="M864.922009 192.405459c-80.809125-80.821412-212.257571-80.821412-293.066697 0L144.50196 619.696354c-0.839586 0.839586-1.226615 1.938215-1.938215 2.844353-28.098485 29.583119-43.794647 67.887693-43.794647 108.841058 0 42.243461 16.470219 81.969187 46.311357 111.876878 29.90769 29.906666 69.57096 46.376886 111.814421 46.376886s82.03574-16.470219 111.876878-46.376886c0.12901-0.066553 0.12901-0.195562 0.258019-0.324572 0.066553-0.063481 0.12901-0.063481 0.195562-0.129009L707.958341 504.201065c0.320476-0.258019 0.710576-0.320476 0.903067-0.645047 42.308989-42.308989 42.308989-111.10282 0-153.412834-42.308989-42.308989-111.10282-42.308989-153.412834 0-0.12901 0.132081-0.12901 0.261091-0.258019 0.3901L221.431584 684.16427c-9.495513 9.495513-9.495513 24.867103 0 34.428144 9.495513 9.495513 24.870175 9.495513 34.365687 0L589.556242 384.896924c0.12901-0.12901 0.195562-0.191467 0.258019-0.320477 23.382469-23.385541 61.365543-23.385541 84.684531 0 23.057898 22.995441 23.25346 60.330395 0.774057 83.712865-0.194538 0.12901-0.387029 0.195562-0.516038 0.324571L334.858624 808.44347c-0.12901 0.062457-0.12901 0.191467-0.191467 0.320476-0.066553 0.066553-0.195562 0.066553-0.258019 0.12901-20.670197 20.670197-48.252644 32.1029-77.515286 32.1029s-56.711984-11.432704-77.319724-32.1029c-42.762571-42.759499-42.762571-112.263906-0.062457-155.026477 0.387029-0.320476 0.516038-0.839586 0.774057-1.226615l425.935271-425.868718c61.881581-61.819124 162.453741-61.819124 224.335323 0 61.815029 61.881581 61.815029 162.517222 0 224.336346l-399.515959 399.386949c-9.494489 9.494489-9.494489 24.867103 0 34.361591 9.495513 9.495513 24.933655 9.495513 34.428145 0L864.922009 485.46806c80.80503-80.80503 80.80503-212.253476 0-293.062601z" fill="#27323A" p-id="23394"></path></svg>