<?xml version="1.0" standalone="no"?><!DOCTYPE svg PUBLIC "-//W3C//DTD SVG 1.1//EN" "http://www.w3.org/Graphics/SVG/1.1/DTD/svg11.dtd"><svg t="1563439824133" class="icon" viewBox="0 0 1024 1024" version="1.1" xmlns="http://www.w3.org/2000/svg" p-id="14883" xmlns:xlink="http://www.w3.org/1999/xlink" width="200" height="200"><defs><style type="text/css"></style></defs><path d="M789.2 733.4H234.8c-28.8 0-52.4-23.5-52.4-52.4V343c0-28.8 23.5-52.4 52.4-52.4h554.4c28.8 0 52.4 23.5 52.4 52.4v338c0 28.9-23.5 52.4-52.4 52.4z" fill="#EBDACC" p-id="14884"></path><path d="M47.4 809.3l339.3-307.8 33.9 37.4L81.4 846.7l-34-37.4z m599.5-272.7l34.8-36.5 306.9 292.8-34.8 36.5-306.9-292.8z" fill="#E48218" p-id="14885"></path><path d="M535.7 663.8h-1.8c-21.6-0.5-42-9.2-57.5-24.8l-0.5-0.5L54.8 193.3l36.6-34.7 420.9 445.1c6.2 6.1 14.3 9.6 22.7 9.7 7.9 0.1 15.2-2.5 20.6-7.9l396.8-443.7 37.6 33.6-397.7 444.9-0.5 0.6c-14.9 14.8-34.7 22.9-56.1 22.9z" fill="#E48218" p-id="14886"></path><path d="M917.4 890.4H106.6C48.3 890.4 1 843.1 1 784.9V239.1c0-58.2 47.3-105.6 105.6-105.6h810.9c58.2 0 105.6 47.3 105.6 105.6V785c-0.1 58.1-47.4 105.4-105.7 105.4zM106.6 184c-30.3 0-55.1 24.8-55.1 55.1V785c0 30.3 24.8 55.1 55.1 55.1h810.9c30.3 0 55.1-24.8 55.1-55.1V239.1c0-30.3-24.8-55.1-55.1-55.1H106.6z" fill="#E48218" p-id="14887"></path></svg>