<?xml version="1.0" standalone="no"?><!DOCTYPE svg PUBLIC "-//W3C//DTD SVG 1.1//EN" "http://www.w3.org/Graphics/SVG/1.1/DTD/svg11.dtd"><svg t="1563439813801" class="icon" viewBox="0 0 1024 1024" version="1.1" xmlns="http://www.w3.org/2000/svg" p-id="14659" xmlns:xlink="http://www.w3.org/1999/xlink" width="200" height="200"><defs><style type="text/css"></style></defs><path d="M512 64C264.6 64 64 264.6 64 512s200.6 448 448 448 448-200.6 448-448S759.4 64 512 64z m-53.3 716.8c-121.3 0-245.4-65.8-245.4-164.3 0-51.5 32-111 87.2-167.1 73.7-75 159.6-109.1 191.9-76.3 14.3 14.5 15.6 39.6 6.5 69.5-4.8 15.1 13.9 6.8 13.9 6.8 59.6-25.4 111.5-26.9 130.5 0.7 10.1 14.7 9.2 35.3-0.2 59.3-4.4 11 1.3 12.7 9.6 15.2 33.6 10.6 70.9 36.2 70.9 81.3 0 74.8-105.8 174.9-264.9 174.9z m252.1-314.5c-11.4 2.3-22.5-5-24.8-16.4-6.2-30.5-30.2-54.5-60.7-60.7-11.4-2.4-18.7-13.5-16.3-24.8 2.3-11.4 13.5-18.7 24.8-16.4 46.8 9.6 83.8 46.6 93.4 93.4 2.3 11.4-5.1 22.5-16.4 24.9z m99.9-21.7c0 11.6-9.4 21-21 21s-21-9.4-21-21c0-76.3-61.8-138.1-138.1-138.1-11.6 0-21-9.4-21-21s9.4-21 21-21c99.4 0.1 180 80.6 180.1 180.1z" fill="#d81e06" p-id="14660"></path><path d="M436.3 505.2c-96.8 9.6-170.2 69.2-163.9 133.1 6.3 63.9 89.9 107.9 186.7 98.3 96.8-9.6 170.2-69.3 164-133.2-6.4-63.8-90-107.8-186.8-98.2zM433 685.5c-39 7.9-75.9-12.1-82.5-44.6-6.5-32.5 19.8-65.2 58.8-73 39-7.8 75.9 12.2 82.5 44.6 6.5 32.4-19.8 65.1-58.8 73z" fill="#d81e06" p-id="14661"></path></svg>