<?xml version="1.0" standalone="no"?><!DOCTYPE svg PUBLIC "-//W3C//DTD SVG 1.1//EN" "http://www.w3.org/Graphics/SVG/1.1/DTD/svg11.dtd"><svg t="1563847431976" class="icon" viewBox="0 0 1024 1024" version="1.1" xmlns="http://www.w3.org/2000/svg" p-id="4816" xmlns:xlink="http://www.w3.org/1999/xlink" width="200" height="200"><defs><style type="text/css"></style></defs><path d="M339.4 611.2h-117.8c15.6 53.4 44.6 101.4 86.8 143.8 67.6 67.6 148.8 101.2 243.8 101.2 19 0 37.4-1.4 55.2-4.2 71.6-10.8 134.2-43.2 187.8-97.2 42.6-42.4 71.8-90.4 87.4-143.8H339.4z m552-160c2.2 13.6 3.8 27.4 4.6 41.4H208.4c0.6-14.2 2.2-28 4.4-41.4h678.6z m4.6 80c-0.8 14.2-2.2 28-4.6 41.4H212.8c-2.2-13.6-3.8-27.4-4.4-41.4H896z m-13.2-118.4c-15.6-53.6-44.8-101.8-87.6-144.4-53.6-53.6-116-85.6-187.2-96.4-18-2.8-36.6-4.2-55.8-4.2-95 0-176.2 33.6-243.8 100.6-42.4 42.6-71.4 90.8-87 144.4h661.4z" fill="#008CDB" p-id="4817"></path><path d="M188 512c0-181.6 136.4-332.6 313.8-359-4.4-0.2-8.8-0.4-13.2-0.4C289.4 152.6 128 313.4 128 512c0 198.6 161.4 359.4 360.6 359.4 4.4 0 8.8-0.2 13.2-0.4C324.4 844.6 188 693.6 188 512z" fill="#008CDB" p-id="4818"></path></svg>