<?xml version="1.0" standalone="no"?><!DOCTYPE svg PUBLIC "-//W3C//DTD SVG 1.1//EN" "http://www.w3.org/Graphics/SVG/1.1/DTD/svg11.dtd"><svg t="1563847422773" class="icon" viewBox="0 0 1024 1024" version="1.1" xmlns="http://www.w3.org/2000/svg" p-id="4579" xmlns:xlink="http://www.w3.org/1999/xlink" width="200" height="200"><defs><style type="text/css"></style></defs><path d="M924.586667 790.186667c-12.373333-2.56-29.013333-2.133333-36.693334-9.813334-44.8-45.653333-87.893333-93.44-123.733333-132.266666l-18.346667-19.2a335.786667 335.786667 0 0 0 95.146667-104.533334h57.173333v-10.24h-51.2q5.12-9.386667 9.386667-18.773333h41.813333v-10.24h-37.12c32-73.813333 48.213333-177.066667 17.493334-317.866667 0 0-57.173333 19.2-92.16 84.48 0 0-144.213333 2.133333-173.653334 11.093334 0 0-21.333333-58.88-98.986666-80.213334 0 0-34.986667 107.52 3.84 231.253334-55.466667 24.746667-108.8 45.653333-158.293334 73.813333s-104.533333 71.253333-162.133333 111.36c-14.08-35.84-33.28-71.68-42.24-109.653333-17.493333-77.226667 38.826667-141.653333 117.76-141.226667 18.346667 0 38.4-2.986667 43.093333 23.466667 0.853333 3.84 8.106667 8.106667 12.8 9.813333 36.266667 12.373333 72.533333 11.52 112.213334-2.133333a148.053333 148.053333 0 0 0-94.72-59.733334c-6.4-1.28-14.08 2.986667-20.906667 4.693334s-22.186667 7.253333-32.853333 6.4c-83.626667-8.96-147.626667 39.253333-156.16 120.32-4.693333 45.653333 11.52 86.613333 34.133333 125.013333 7.253333 12.8 15.36 24.746667 22.613333 37.12-59.733333 69.546667-117.333333 136.96-156.586666 224h107.946666c-5.546667-69.973333 23.04-118.613333 84.906667-148.48 16.213333-7.68 28.16-6.826667 42.24 6.826667 23.04 22.186667 50.346667 39.253333 72.533333 61.866666 34.133333 34.56 75.093333 30.72 118.613334 26.453334-1.28-30.72-20.906667-34.986667-43.946667-35.84-8.106667-0.426667-21.333333-1.28-23.893333-5.973334-9.813333-18.773333-15.786667-39.253333-26.026667-66.133333 40.96 6.826667 72.106667 11.093333 103.253333 17.493333 136.96 28.16 263.253333 84.48 385.706667 149.333334 43.52 23.04 86.186667 11.52 129.706667 14.08 0-36.693333-20.906667-57.6-62.293334-66.133334zM520.106667 209.066667c14.08 72.533333 63.146667 81.92 63.146666 81.92 27.306667-16.213333 94.72-18.773333 94.72-18.773334l21.76 55.466667 25.173334-59.306667c37.546667-1.706667 101.546667 8.96 101.546666 8.96 23.466667-17.92 45.226667-82.346667 45.226667-82.346666 12.8 75.946667 10.666667 139.946667 0 193.706666l-25.6 14.933334 21.333333 4.693333q-3.84 15.786667-8.96 31.146667l-19.626666 11.093333h15.786666a370.773333 370.773333 0 0 1-14.933333 34.56H802.133333v10.24h32q-5.12 9.386667-10.666666 18.773333h-21.333334v10.24h14.933334c-48.64 72.96-107.093333 101.12-107.093334 101.12a424.96 424.96 0 0 1-111.786666-101.12h16.64v-10.24h-24.32l-12.373334-18.773333h37.12v-10.24h-43.093333a393.386667 393.386667 0 0 1-23.04-45.653333l17.493333-2.986667-23.04-11.093333q-5.546667-14.933333-10.24-30.293334h33.28l-40.106666-26.453333c-20.053333-88.746667-5.973333-159.146667-5.973334-159.146667zM121.173333 801.28c-5.12 28.16-29.866667 11.52-53.76 16.64 39.68-70.826667 85.333333-127.573333 136.533334-184.746667l28.16 30.293334c-64 27.733333-99.413333 72.96-110.933334 137.813333z m744.96 21.76c-101.973333-53.333333-206.08-102.4-317.866666-132.693333a1380.693333 1380.693333 0 0 0-148.053334-30.293334c-21.333333-3.413333-24.746667-11.946667-21.76-29.44s5.546667-23.893333 5.973334-35.84-4.693333-13.226667-7.253334-20.053333c-5.12 5.12-13.226667 9.386667-15.36 15.786667s-5.12 25.6-7.68 38.4-3.84 19.626667-7.253333 20.053333c-27.733333 3.413333-55.893333 8.106667-82.773333 4.266667-13.226667-1.706667-24.32-21.333333-35.413334-33.706667a12.8 12.8 0 0 1 1.28-12.373333 695.466667 695.466667 0 0 1 52.906667-45.653334c3.84-2.986667 14.08-0.426667 20.48 2.133334a190.293333 190.293333 0 0 1 24.746667 14.506666c7.253333-21.333333-19.626667-52.906667 16.213333-57.6 19.626667-2.56 41.386667 9.813333 67.413333 16.64l-21.333333-47.36c42.24-5.12 60.16 37.546667 98.986667 42.24-5.973333-18.773333-9.813333-35.84-16.213334-51.626666s-2.133333-28.16 16.64-32.426667a104.106667 104.106667 0 0 0 10.666667-3.84c9.386667-7.253333 17.493333-10.24 24.746667-10.24a378.453333 378.453333 0 0 0 23.893333 50.346667h-29.866667v10.24h35.413334l11.946666 18.773333h-47.786666v10.24h55.466666c32.426667 43.946667 77.226667 86.186667 140.373334 123.306667l11.946666-6.4a283.733333 283.733333 0 0 0 20.053334 22.613333l-14.506667 33.706667c18.773333 8.106667 40.106667-25.6 57.173333 11.946666l-33.28 20.053334 4.693334 6.826666c2.986667 0.426667 6.826667 2.56 9.386666 1.28 34.986667-16.213333 57.6 0.853333 77.653334 27.306667s41.813333 46.933333 78.08 46.506667c10.24 0 20.906667 9.813333 30.72 18.346666-31.146667 5.973333-60.586667 9.813333-90.453334-5.973333z m0 0" fill="" p-id="4580"></path><path d="M847.786667 764.16c-20.053333-26.453333-42.666667-43.946667-77.653334-27.306667-2.56 1.28-6.4-0.853333-9.386666-1.28l-4.693334-6.826666 33.28-19.626667c-17.493333-37.12-38.826667-3.413333-57.173333-11.946667l14.506667-33.706666a281.173333 281.173333 0 0 1-20.053334-22.613334l-11.946666 6.4c-62.72-37.12-107.946667-79.786667-140.373334-123.306666h-55.466666v-10.24h48.213333l-11.946667-18.773334h-35.84v-10.24h29.866667a378.453333 378.453333 0 0 1-23.893333-50.346666c-7.253333-0.426667-15.36 2.56-24.746667 10.24a25.6 25.6 0 0 1-10.666667 3.84c-18.773333 4.266667-24.746667 13.226667-16.64 32.426666s10.666667 32.853333 16.213334 51.626667c-38.826667-4.693333-56.746667-47.36-98.986667-42.24l21.333333 47.36c-25.6-6.826667-47.36-19.2-67.413333-16.64-35.84 4.693333-8.96 36.266667-16.213333 57.6a190.293333 190.293333 0 0 0-24.746667-14.506667c-6.4-2.56-16.213333-5.12-20.48-2.133333a693.76 693.76 0 0 0-52.906667 45.653333 12.8 12.8 0 0 0-1.28 12.373334c11.093333 12.373333 22.186667 31.573333 35.413334 33.706666 26.88 3.84 55.466667-1.28 82.773333-4.266666 3.413333-0.426667 5.546667-12.8 7.253333-20.053334s3.84-26.026667 7.68-38.4 9.813333-10.666667 15.36-15.786666c2.56 6.826667 7.253333 13.226667 7.253334 20.053333s-3.84 23.893333-5.973334 35.84 0.426667 26.026667 21.76 29.44a1380.266667 1380.266667 0 0 1 148.053334 30.293333c111.786667 30.293333 215.893333 78.933333 317.866666 132.693334 29.866667 15.36 59.306667 11.52 90.453334 5.973333-9.813333-8.533333-20.48-18.346667-30.72-18.346667-36.693333 0.853333-58.88-20.48-78.08-46.506666zM67.413333 817.92c24.32-4.693333 48.64 11.52 53.76-16.64 11.946667-65.28 46.933333-110.08 110.933334-137.813333l-28.16-30.293334c-51.2 57.173333-96.853333 114.346667-136.533334 184.746667z m0 0" fill="#D1A31A" p-id="4581"></path><path d="M705.28 502.186667l38.4-23.466667-83.2-2.133333z m50.773333-34.56a329.813333 329.813333 0 0 1-6.826666-45.653334l0.853333-4.693333h-85.333333a466.773333 466.773333 0 0 1-13.226667 50.346667z m0 0" fill="#FFDC76" p-id="4582"></path><path d="M566.613333 394.666667H533.333333q4.693333 15.36 10.24 30.293333l23.04 11.093333-17.493333 2.986667a393.386667 393.386667 0 0 0 23.04 45.653333h43.093333v10.24h-37.12l12.373334 18.773334h24.32v10.24h-16.64a424.96 424.96 0 0 0 111.786666 101.12s58.453333-28.16 107.093334-101.12H802.133333v-10.24h21.333334q5.546667-9.386667 10.666666-18.773334H802.133333v-10.24h37.546667a370.773333 370.773333 0 0 0 14.933333-34.56h-15.786666l19.626666-11.093333q5.12-15.36 8.96-31.146667l-21.333333-4.693333 25.6-14.933333c10.666667-53.333333 12.8-117.333333 0-193.706667 0 0-21.76 64.426667-45.226667 82.346667 0 0-64-10.666667-101.546666-8.96L699.733333 327.253333l-21.76-55.466666s-67.413333 2.56-94.72 18.773333c0 0-49.066667-9.386667-63.146666-81.92 0 0-13.653333 69.973333 5.973333 159.146667z m54.613334-63.146667c52.053333-21.333333 53.333333 29.866667 45.226666 75.52h86.186667c15.36-49.066667 70.4-47.36 70.4-47.36v9.813333c-36.266667 2.133333-52.053333 18.773333-58.026667 37.546667h40.96v10.666667h-43.093333a116.053333 116.053333 0 0 0 6.4 50.346666h16.213333l-68.693333 40.96 37.546667 21.333334-4.693334 8.96-43.52-23.893334-43.093333 26.026667-5.973333-8.96 37.973333-23.04-59.306667-33.28v-8.533333c8.106667-7.253333 14.506667-29.866667 18.346667-50.346667H605.866667v-10.666667h49.493333c2.56-14.933333 3.84-26.453333 3.84-26.453333s0.426667-5.546667 0.426667-8.533333c0-45.226667-27.733333-32.853333-27.733334-32.853334-17.493333 6.4-34.986667 28.586667-34.986666 28.586667l-8.106667-6.4c-0.853333-5.12 32.853333-29.866667 32.853333-29.866667z m0 0" fill="#FFDC76" p-id="4583"></path><path d="M631.466667 339.2s27.733333-11.946667 27.733333 32.853333c0 2.56 0 5.546667-0.426667 8.533334s-1.28 11.52-3.84 26.453333H605.866667v10.666667h47.36c-3.84 20.48-9.813333 43.093333-18.346667 50.346666v8.533334l59.306667 32.853333-37.973334 23.04 5.973334 8.96 43.093333-26.026667 43.52 23.893334 4.693333-8.96-37.546666-21.333334 68.693333-40.96h-16.213333a116.053333 116.053333 0 0 1-6.4-50.346666h43.52v-11.093334h-40.96c5.973333-18.773333 21.76-35.413333 58.026666-37.546666v-9.813334s-55.04-1.706667-70.4 47.36h-85.76c7.68-45.653333 6.826667-96.853333-45.226666-75.52 0 0-33.706667 24.746667-32.853334 29.866667l8.106667 6.4s17.92-22.613333 34.986667-28.586667z m73.813333 163.413333l-44.8-25.6 83.2 2.133334z m44.8-84.906666l-0.853333 4.693333a328.106667 328.106667 0 0 0 6.826666 45.653333h-104.96a471.04 471.04 0 0 0 13.226667-50.346666z m0 0" fill="" p-id="4584"></path></svg>