<?xml version="1.0" standalone="no"?><!DOCTYPE svg PUBLIC "-//W3C//DTD SVG 1.1//EN" "http://www.w3.org/Graphics/SVG/1.1/DTD/svg11.dtd"><svg t="1563847652393" class="icon" viewBox="0 0 1042 1024" version="1.1" xmlns="http://www.w3.org/2000/svg" p-id="6250" xmlns:xlink="http://www.w3.org/1999/xlink" width="203.515625" height="200"><defs><style type="text/css"></style></defs><path d="M541.6 512m-486.4 0a486.4 486.4 0 1 0 972.8 0 486.4 486.4 0 1 0-972.8 0Z" fill="#FFFFFF" p-id="6251"></path><path d="M541.6 1000.8c-269.6 0-488-219.2-488-488s219.2-488 488-488 488 219.2 488 488-218.4 488-488 488z m0-972.8C274.4 28 57.6 244.8 57.6 512s217.6 484 484 484 484-217.6 484-484S808.8 28 541.6 28z" fill="#808080" p-id="6252"></path><path d="M103.2 900c-43.2-43.2-30.4-132.8 24.8-240.8 34.4 95.2 100.8 176 187.2 228-95.2 43.2-174.4 50.4-212 12.8zM904.8 99.2c34.4 34.4 32 95.2 3.2 174.4-48.8-75.2-120-132.8-204.8-167.2 90.4-40 164-45.6 201.6-7.2zM356.8 445.6c5.6-96.8 86.4-174.4 184.8-174.4s180 77.6 184.8 174.4H356.8z m386.4 116.8h235.2c1.6-16 1.6-32 1.6-50.4 0-80.8-21.6-154.4-59.2-219.2 39.2-102.4 37.6-190.4-14.4-242.4C857.6 0 724.8 8.8 576 75.2c-10.4 0-21.6-1.6-34.4-1.6-204.8 0-377.6 141.6-425.6 332C180.8 323.2 248.8 264 338.4 220.8c-8.8 7.2-56 56-64.8 63.2C35.2 522.4-40 833.6 40.8 914.4c60.8 60.8 172.8 50.4 301.6-10.4 59.2 30.4 127.2 46.4 199.2 46.4 192 0 356-124 415.2-296.8H720c-32 60.8-96.8 100.8-170.4 100.8s-136.8-41.6-170.4-100.8c-14.4-27.2-23.2-59.2-23.2-92h387.2z" fill="#7FCE46" p-id="6253"></path></svg>