<?xml version="1.0" standalone="no"?><!DOCTYPE svg PUBLIC "-//W3C//DTD SVG 1.1//EN" "http://www.w3.org/Graphics/SVG/1.1/DTD/svg11.dtd"><svg t="1563847664586" class="icon" viewBox="0 0 1024 1024" version="1.1" xmlns="http://www.w3.org/2000/svg" p-id="6491" xmlns:xlink="http://www.w3.org/1999/xlink" width="200" height="200"><defs><style type="text/css"></style></defs><path d="M312 0h400c44 0 80 36 80 80v864c0 44-36 80-80 80H312c-44 0-80-36-80-80V80c0-44 36-80 80-80z" fill="#E4E7E7" p-id="6492"></path><path d="M296 144h432c8.8 0 16 7.2 16 16v704c0 8.8-7.2 16-16 16H296c-8.8 0-16-7.2-16-16V160c0-8.8 7.2-16 16-16z" fill="#3F5E6D" p-id="6493"></path><path d="M586.4 467.2c-9.6-12-23.2-19.2-36-19.2-16.8 0-24 8-35.2 8-12 0-20.8-8-36-8-14.4 0-29.6 8.8-39.2 24-13.6 20.8-11.2 60.8 10.4 94.4 8 12 18.4 25.6 32 25.6 12 0 16-8 32-8 16.8 0 20 8 32 8 13.6 0 24.8-15.2 32.8-27.2 5.6-8.8 8-12.8 12-23.2-31.2-12-36-56.8-4.8-74.4z m-44-34.4c6.4-8 11.2-20 9.6-32-10.4 0.8-22.4 7.2-29.6 16-6.4 8-12 20-9.6 31.2 11.2 0 23.2-6.4 29.6-15.2z" fill="#4E6B78" p-id="6494"></path><path d="M512 912c22.4 0 40 17.6 40 40s-17.6 40-40 40-40-17.6-40-40 17.6-40 40-40zM464 56h96c8.8 0 16 7.2 16 16s-7.2 16-16 16H464c-8.8 0-16-7.2-16-16s7.2-16 16-16z" fill="#BFC3C5" p-id="6495"></path></svg>