<?xml version="1.0" standalone="no"?><!DOCTYPE svg PUBLIC "-//W3C//DTD SVG 1.1//EN" "http://www.w3.org/Graphics/SVG/1.1/DTD/svg11.dtd"><svg t="1563847645203" class="icon" viewBox="0 0 1024 1024" version="1.1" xmlns="http://www.w3.org/2000/svg" p-id="6013" xmlns:xlink="http://www.w3.org/1999/xlink" width="200" height="200"><defs><style type="text/css"></style></defs><path d="M513 511.8m-447.4 0a447.4 447.4 0 1 0 894.8 0 447.4 447.4 0 1 0-894.8 0Z" fill="#26BEF0" p-id="6014"></path><path d="M513 104.4c55 0 108.4 10.8 158.5 32 48.5 20.5 92.1 49.9 129.5 87.3 37.4 37.4 66.8 81 87.3 129.5 21.2 50.2 32 103.5 32 158.5s-10.8 108.4-32 158.5c-20.5 48.5-49.9 92.1-87.3 129.5-37.4 37.4-81 66.8-129.5 87.3-50.2 21.2-103.5 32-158.5 32s-108.4-10.8-158.5-32c-48.5-20.5-92.1-49.9-129.5-87.3-37.4-37.4-66.8-81-87.3-129.5-21.2-50.2-32-103.5-32-158.5s10.8-108.4 32-158.5c20.5-48.5 49.9-92.1 87.3-129.5 37.4-37.4 81-66.8 129.5-87.3 50.1-21.2 103.5-32 158.5-32m0-40c-247.1 0-447.4 200.3-447.4 447.4S265.9 959.2 513 959.2s447.4-200.3 447.4-447.4S760.1 64.4 513 64.4z" fill="#F2F2F2" p-id="6015"></path><path d="M512.1 183c-11 0-20-9-20-20V91c0-11 9-20 20-20s20 9 20 20v72c0 11-9 20-20 20zM512 950c-11 0-20-9-20-20v-72c0-11 9-20 20-20s20 9 20 20v72c0 11-9 20-20 20zM931.6 530.5h-72c-11 0-20-9-20-20s9-20 20-20h72c11 0 20 9 20 20s-9 20-20 20zM164.5 530.5h-72c-11 0-20-9-20-20s9-20 20-20h72c11 0 20 9 20 20s-8.9 20-20 20z" fill="#F2F2F2" p-id="6016"></path><path d="M574.7 569.3L741 292 463.8 458.4z" fill="#E50E42" p-id="6017"></path><path d="M575.9 568.1L298.6 734.4 465 457.2z" fill="#F4F4F4" p-id="6018"></path></svg>