<?xml version="1.0" standalone="no"?><!DOCTYPE svg PUBLIC "-//W3C//DTD SVG 1.1//EN" "http://www.w3.org/Graphics/SVG/1.1/DTD/svg11.dtd"><svg class="icon" width="200px" height="200.00px" viewBox="0 0 1024 1024" version="1.1" xmlns="http://www.w3.org/2000/svg"><path fill="#1296db" d="M511.9744 245.6832c-74.17856 0.04096-134.31296 60.09856-134.44096 134.25664 0.128 74.1632 60.26752 134.24128 134.44096 134.26688 74.17344-0.0256 134.31296-60.09856 134.44096-134.26688 0.0256-74.03008-60.29824-134.25664-134.44096-134.25664z"  /><path fill="#1296db" d="M512 25.6C243.35872 25.6 25.59488 243.3792 25.59488 512c0 268.66176 217.76384 486.4 486.40512 486.4 268.64128 0 486.40512-217.73824 486.40512-486.4 0-268.6208-217.76384-486.4-486.40512-486.4z m264.47872 801.10592a24.18688 24.18688 0 0 1-24.22272-24.17152v-0.03584c0-132.3008-107.81696-239.872-240.2816-239.872-132.47488 0-240.27136 107.60192-240.27136 239.872a24.22784 24.22784 0 0 1-24.2432 24.22272 24.2176 24.2176 0 0 1-24.22272-24.22272 287.5392 287.5392 0 0 1 84.5824-203.84768 287.07328 287.07328 0 0 1 91.8016-61.78304c3.9424-1.64864 7.99232-2.87744 11.98592-4.36224-49.68448-32.70656-82.59584-88.83712-82.59584-152.56576 0-100.70016 82.09408-182.66624 182.9632-182.66624s182.92736 81.96608 182.92736 182.66624c0 63.71328-32.8704 119.8336-82.51904 152.54016 4.00896 1.47968 8.08448 2.72384 12.0576 4.38272a288.18432 288.18432 0 0 1 91.77088 61.78304 286.90944 286.90944 0 0 1 84.5568 203.84768 24.26368 24.26368 0 0 1-24.28928 24.21248z"  /></svg>