<?xml version="1.0" standalone="no"?><!DOCTYPE svg PUBLIC "-//W3C//DTD SVG 1.1//EN" "http://www.w3.org/Graphics/SVG/1.1/DTD/svg11.dtd"><svg t="1563847669368" class="icon" viewBox="0 0 1024 1024" version="1.1" xmlns="http://www.w3.org/2000/svg" p-id="6610" xmlns:xlink="http://www.w3.org/1999/xlink" width="200" height="200"><defs><style type="text/css"></style></defs><path d="M320 0h384a96 96 0 0 1 96 96v832a96 96 0 0 1-96 96H320a96 96 0 0 1-96-96V96a96 96 0 0 1 96-96z" fill="#4c9e83" p-id="6611"></path><path d="M432.496 914h166.992a22.496 22.496 0 1 1 0 44.992H432.496a22.48 22.48 0 1 1 0-44.992zM448.432 41.488h144.128c6.32 0 11.44 5.136 11.44 11.44v0.128c0 6.32-5.12 11.44-11.44 11.44h-144.128a11.44 11.44 0 0 1-11.44-11.44v-0.128c0-6.304 5.12-11.44 11.44-11.44zM288 96h448a32 32 0 0 1 32 32v704a32 32 0 0 1-32 32H288a32 32 0 0 1-32-32V128a32 32 0 0 1 32-32z" fill="#FFFFFF" p-id="6612"></path><path d="M662.752 566.752l-0.112-0.016c-0.272 0.016-0.496 0.16-0.752 0.16a23.664 23.664 0 0 1-23.552-23.76v-101.6c0-13.12 10.544-23.744 23.552-23.744v-0.016l0.128 0.032c0.256 0 0.464-0.144 0.736-0.144v-0.016c12.992 0 23.536 10.64 23.536 23.76v101.6c0 13.12-10.544 23.744-23.536 23.744z m-64.128 50.192H598.4c-0.224 0.016-0.416 0.128-0.64 0.128h-17.056c0.592 2.048 0.928 4.208 0.928 6.464v50.144a23.68 23.68 0 0 1-23.552 23.76l-0.112-0.016c-0.272 0-0.48 0.144-0.752 0.144a23.664 23.664 0 0 1-23.552-23.76v-50.144c0-2.272 0.336-4.496 0.944-6.592h-42.864c0.576 2.048 0.928 4.208 0.928 6.464v50.144a23.68 23.68 0 0 1-23.552 23.76l-0.112-0.016c-0.272 0-0.48 0.144-0.752 0.144a23.664 23.664 0 0 1-23.552-23.76v-50.144c0-2.224 0.32-4.448 0.944-6.592h-17.952a24.992 24.992 0 0 1-24.848-25.088h-0.032V417.792h0.864v-0.128h219.808v174.192c0 13.824-11.136 25.088-24.864 25.088z m23.984-214.992H402.832c0-33.936 22.544-63.584 55.856-79.232l-18.576-28.112a3.968 3.968 0 0 1 1.088-5.472 3.792 3.792 0 0 1 2.992-0.56c1.296-0.016 2.544 0.368 3.312 1.52l10.512 15.872 8.816 13.344c7.04-2.688 14.464-4.8 22.192-6.224a131.28 131.28 0 0 1 24.56-2.32 128.32 128.32 0 0 1 46.048 8.464l4.256-6.464 4.432-6.672 10.48-15.856c0.704-1.088 1.84-1.52 3.024-1.6a3.68 3.68 0 0 1 3.296 0.368 3.968 3.968 0 0 1 1.088 5.472l-18.56 28.112c33.296 15.648 55.84 45.312 55.84 79.232h-0.88v0.128z m-73.68-43.68a11.84 11.84 0 0 0 11.648 11.856 11.792 11.792 0 0 0-0.624-23.568 11.76 11.76 0 0 0-11.024 11.712z m-94.208 0a11.84 11.84 0 0 0 11.664 11.856 11.76 11.76 0 0 0 11.024-11.728 11.824 11.824 0 0 0-11.664-11.84 11.744 11.744 0 0 0-11.024 11.712z m-90.272 208.48l-0.112-0.016c-0.272 0.016-0.496 0.16-0.768 0.16a23.664 23.664 0 0 1-23.552-23.76v-101.6c0-13.12 10.544-23.744 23.552-23.744v-0.016l0.144 0.032c0.256 0 0.464-0.144 0.736-0.144v-0.016a23.68 23.68 0 0 1 23.552 23.76v101.6c0 13.12-10.56 23.744-23.552 23.744z" fill="#4c9e83" p-id="6613"></path></svg>