<?xml version="1.0" standalone="no"?><!DOCTYPE svg PUBLIC "-//W3C//DTD SVG 1.1//EN" "http://www.w3.org/Graphics/SVG/1.1/DTD/svg11.dtd"><svg t="1563847660107" class="icon" viewBox="0 0 1024 1024" version="1.1" xmlns="http://www.w3.org/2000/svg" p-id="6368" xmlns:xlink="http://www.w3.org/1999/xlink" width="200" height="200"><defs><style type="text/css"></style></defs><path d="M510.628455 0.108312s301.850988-13.559056 461.831853 289.251866H484.966242s-92.065591-3.02379-170.548128 108.480449c-22.638424 46.700749-46.780744 94.913393-19.614635 189.818786-39.237269-66.275387-208.281502-360.062936-208.281502-360.062936S205.761677 12.155474 510.628455 0.108312z" fill="#E16B5A" p-id="6369"></path><path d="M510.628455 0.108312c-5.207637 0.207986-10.231288 0.615957-15.334932 0.935935 81.498327 5.935587 301.683 44.932872 430.266049 288.315931h46.884737C812.471444-13.458743 510.628455 0.108312 510.628455 0.108312z" fill="#CC6152" p-id="6370"></path><path d="M956.749401 768.934795s-139.190311 267.685367-481.902455 254.518283c42.277057-73.042916 243.807029-421.378668 243.807029-421.378668s48.652613-78.082565-8.799388-201.673962c-29.205967-42.925012-117.679808-87.91388-213.60913-111.896211 77.14663-0.767947 475.254918 0.047997 475.254917 0.047997s127.255142 210.825325-14.750973 480.382561z" fill="#FFD464" p-id="6371"></path><path d="M971.492375 288.560234s-203.065865-0.415971-347.247828-0.367975c138.318372 0.031998 304.002839 0.367974 304.002838 0.367975s127.263141 210.817325-14.742973 480.374561c0 0-127.543122 244.814959-438.665465 254.518283 342.712144 13.167083 481.910455-254.518283 481.910454-254.518283 142.006115-269.557236 14.742974-480.374561 14.742974-480.374561z" fill="#F2C95F" p-id="6372"></path><path d="M66.65936 770.966653s-162.636679-254.190306 20.158597-543.866141l243.663038 421.474661s43.38898 81.098355 179.355516 93.225511c51.828392-3.775737 105.744639-6.983514 174.515852-77.898578-37.917361 67.059332-208.329498 360.030938-208.329499 360.030939s-246.526839 4.59168-409.363504-252.966392z" fill="#74B340" p-id="6373"></path><path d="M509.372543 516.16839m-231.983852 0a231.983852 231.983852 0 1 0 463.967704 0 231.983852 231.983852 0 1 0-463.967704 0Z" fill="#FFFFFF" p-id="6374"></path><path d="M509.364543 516.16839m-183.987192 0a183.987193 183.987193 0 1 0 367.974385 0 183.987193 183.987193 0 1 0-367.974385 0Z" fill="#2995CC" p-id="6375"></path><path d="M509.372543 332.189197c-3.663745 0-7.287493 0.135991-10.887242 0.343976 96.53728 5.639607 173.091951 85.690035 173.091951 183.635217 0 97.961181-76.554671 178.019608-173.091951 183.659215 3.607749 0.199986 7.231497 0.343976 10.887242 0.343976 101.600928 0 183.987193-82.386265 183.987193-184.003191 0-101.600928-82.386265-183.979193-183.987193-183.979193z" fill="#268CBF" p-id="6376"></path></svg>