<?xml version="1.0" standalone="no"?><!DOCTYPE svg PUBLIC "-//W3C//DTD SVG 1.1//EN" "http://www.w3.org/Graphics/SVG/1.1/DTD/svg11.dtd"><svg t="1563847638012" class="icon" viewBox="0 0 1024 1024" version="1.1" xmlns="http://www.w3.org/2000/svg" p-id="5885" xmlns:xlink="http://www.w3.org/1999/xlink" width="200" height="200"><defs><style type="text/css"></style></defs><path d="M67.413333 507.306667a448 448 0 1 0 448-448 448 448 0 0 0-448 448z" fill="#1C6CA8" p-id="5886"></path><path d="M67.413333 543.36c0 227.2 200.32 411.52 448 411.52s448-184.32 448-411.52-200.32-411.52-448-411.52-448 184.106667-448 411.52z" fill="#1E72B1" p-id="5887"></path><path d="M733.653333 164.693333L661.333333 139.306667l91.093334 78.08-34.133334-2.133334-6.826666 14.08a94.08 94.08 0 0 0-62.08-20.053333 32.213333 32.213333 0 0 0-22.826667 21.333333l5.333333 21.333334 69.546667 5.546666c5.546667 7.68 16.426667 7.466667 16.426667 23.466667l26.026666-1.066667 18.133334-5.973333a232.533333 232.533333 0 0 1 43.946666 93.226667l-21.333333 14.293333-5.546667 17.493333v61.44s-13.013333 13.013333-15.146666 9.173334 0-50.56-6.826667-55.04a21.333333 21.333333 0 0 0-23.04 0 62.293333 62.293333 0 0 0-32-32 178.773333 178.773333 0 0 0-14.08-24.96 14.72 14.72 0 0 0-11.093333 7.893333 31.146667 31.146667 0 0 0-1.28-24.106667l-32-5.973333-22.4-1.28a21.333333 21.333333 0 0 0-15.573334 19.413333l-12.586666 10.453334-7.466667 26.453333c-1.92 7.04 23.466667 18.133333 33.493333 15.573333s29.653333 25.386667 29.653334 25.386667l-5.12 20.053333s-7.893333 14.08-10.026667 11.093334l-18.986667-29.013334a42.666667 42.666667 0 0 0-40.96 0 254.08 254.08 0 0 0 0 74.88c3.84 14.08 10.026667 20.053333 16 17.92a224.426667 224.426667 0 0 0 29.866667-19.84s21.333333 58.026667 21.333333 61.013334a177.493333 177.493333 0 0 0 34.986667 26.88c1.92 0 8.96 3.2 10.026667-3.84s-4.053333-20.053333 0-21.333334 7.04 1.92 7.893333 11.946667a270.72 270.72 0 0 1 1.066667 49.92 117.76 117.76 0 0 1-23.893334 36.053333s-6.186667 21.333333-2.986666 23.04a273.493333 273.493333 0 0 1 16.853333 37.973334c4.053333 7.893333 71.04 210.773333 204.16 41.386666a378.026667 378.026667 0 0 0 53.973333-362.666666c-29.013333-74.88-97.706667-114.346667-145.066666-209.066667z" fill="#105292" p-id="5888"></path><path d="M162.56 147.2a124.8 124.8 0 0 0 48 92.16A211.626667 211.626667 0 0 1 320 236.8a152.533333 152.533333 0 0 1 123.52-53.546667 180.053333 180.053333 0 0 0-64 91.093334 53.546667 53.546667 0 0 0 31.146667 33.92 847.36 847.36 0 0 1 97.066666 10.026666l-2.133333 24.96c-21.333333 37.546667-64 49.28-97.92 79.573334a115.84 115.84 0 0 1-2.133333 59.52 54.186667 54.186667 0 0 0-39.893334-13.013334H362.666667c-42.666667 41.6-6.613333 76.8 60.586666 109.653334a106.666667 106.666667 0 0 0 53.546667-2.986667c35.413333-19.626667 123.306667-39.68 139.946667 28.8a35.84 35.84 0 0 1-34.133334 10.026667c-4.48 3.84-13.44 5.546667-17.92 9.173333a208 208 0 0 1-168.533333 46.506667 160.426667 160.426667 0 0 0 42.666667 36.48c34.986667 2.346667 54.826667 7.253333 56.96 14.506666h-32a194.773333 194.773333 0 0 0 171.946666 1.28 37.76 37.76 0 0 1-8.106666 20.266667c18.56-15.573333 35.626667-35.2 55.04-49.066667l3.2 18.986667c32-7.04 58.24-57.173333 77.866666-157.013333l13.013334 35.84a627.84 627.84 0 0 0 6.613333-189.44 157.866667 157.866667 0 0 1 39.466667 64c2.56-99.413333-26.453333-192-97.92-245.12 15.573333-2.986667 39.68 6.4 85.333333 41.173333a406.826667 406.826667 0 0 0-133.12-141.013333 371.84 371.84 0 0 1 221.866667 173.013333c0-21.333333-48.64-88.533333-94.506667-128l2.56-13.013333 54.186667 48 4.48-9.386667a323.2 323.2 0 0 1 86.826666 221.866667 392.533333 392.533333 0 0 1-25.6 134.826666c30.506667-21.333333 44.16-42.666667 29.866667-111.36l10.88-42.666666a358.613333 358.613333 0 0 1-21.333333 229.333333c-17.706667 48.213333-61.226667 95.786667-91.733334 143.573333l39.04-27.093333 42.666667-82.773333a132.48 132.48 0 0 1-13.44 83.84 328.533333 328.533333 0 0 1-122.24 110.72 56.32 56.32 0 0 1-25.6 40.32c-60.586667 45.44-143.146667 64-245.973333 59.093333l14.933333 13.866667a366.933333 366.933333 0 0 1-121.173333-18.773334L448 960C216.106667 904.746667 69.973333 757.333333 67.626667 556.8l-21.333334 37.973333c0-42.666667 14.933333-80 21.333334-119.68l3.626666-33.066666-15.36 36.266666a380.586667 380.586667 0 0 1 58.026667-164.906666A237.866667 237.866667 0 0 1 162.56 147.2z" fill="#DA6529" p-id="5889"></path><path d="M379.52 274.346667c-14.293333 58.666667-9.386667 110.08 28.16 149.333333A210.133333 210.133333 0 0 1 430.933333 405.333333a190.293333 190.293333 0 0 0 74.666667-61.226666l2.133333-24.96a515.413333 515.413333 0 0 0-97.066666-10.026667 48.213333 48.213333 0 0 1-31.146667-34.773333zM362.666667 469.333333c-85.333333-3.626667-112.426667 51.413333-99.413334 144.426667 1.92-49.706667 81.066667-110.08 81.28-111.36A49.493333 49.493333 0 0 1 362.666667 469.333333z m228.266666 145.066667c-18.346667-9.386667-45.013333-9.813333-82.773333 2.346667A264.746667 264.746667 0 0 1 298.666667 590.293333c9.6 30.72 35.413333 57.6 94.08 77.013334a207.146667 207.146667 0 0 0 93.653333-2.133334 158.08 158.08 0 0 0 50.56-24.106666 95.573333 95.573333 0 0 1 54.4-26.24zM210.56 239.36L121.6 307.413333a202.666667 202.666667 0 0 1 65.92-92.586666l23.04 24.533333z" fill="#CC562E" p-id="5890"></path><path d="M380.373333 378.88c-1.28-4.053333 21.333333-13.013333 23.893334-13.013333a260.053333 260.053333 0 0 1 37.12-3.2l10.88 4.906666a94.72 94.72 0 0 0 42.666666-26.453333v21.333333a384 384 0 0 1-76.16 52.48c-1.066667 0-1.706667 1.92-2.56 2.56a35.413333 35.413333 0 0 0-7.893333 7.04 166.186667 166.186667 0 0 1-27.306667-43.946666z" fill="#EBB78F" p-id="5891"></path><path d="M472.746667 311.253333l17.706666 7.466667 4.48 21.333333v21.333334l11.52-18.56a37.973333 37.973333 0 0 0 0-21.333334 18.986667 18.986667 0 0 0-12.373333-5.973333z" fill="#7C3330" p-id="5892"></path><path d="M252.373333 231.68a202.026667 202.026667 0 0 1 67.626667 5.12 153.6 153.6 0 0 1 123.52-53.546667 178.986667 178.986667 0 0 0-62.293333 88.746667 181.333333 181.333333 0 0 0 0 106.666667 132.053333 132.053333 0 0 0 27.306666 44.8A117.546667 117.546667 0 0 1 405.333333 482.133333a49.706667 49.706667 0 0 0-40.96-12.8c-85.333333-4.693333-114.133333 49.706667-100.693333 145.28-34.56-87.466667-5.546667-152.96 85.333333-193.92-32.426667-48.213333-19.84-117.76-5.973333-161.92a211.413333 211.413333 0 0 0-90.666667-27.093333z m364.373334 372.48c-12.586667-45.226667-52.266667-56.746667-115.413334-39.253333-30.293333 16.426667-71.68 21.333333-91.52 6.826666h-1.066666a152.32 152.32 0 0 1-48.426667-34.346666 50.346667 50.346667 0 0 0-4.906667-4.266667l-5.973333 15.36c-1.066667 35.2 53.973333 65.28 124.586667 52.906667a299.946667 299.946667 0 0 1 142.72 2.773333z" fill="#F39919" p-id="5893"></path><path d="M737.066667 654.08A500.266667 500.266667 0 0 0 764.586667 554.666667l13.013333 36.053333a638.506667 638.506667 0 0 0 6.613333-189.653333 165.76 165.76 0 0 1 39.466667 64c0-123.093333-37.546667-200.533333-97.92-244.906667 20.266667-1.066667 47.573333 10.026667 85.333333 40.96a418.986667 418.986667 0 0 0-133.12-141.013333c70.4 17.92 144 52.48 222.08 173.013333l-29.44-76.586667-62.72-64 53.12 47.146667 4.693334-7.68c110.506667 131.84 96.213333 245.76 61.44 356.693333l-190.08 106.666667z" fill="#ECAC46" p-id="5894"></path><path d="M843.093333 571.306667c45.226667-67.84 57.813333-151.893333 39.04-251.52C952.106667 448 952.32 593.066667 853.333333 763.733333l-66.133333 39.893334 55.04-232.32z" fill="#F39919" p-id="5895"></path><path d="M697.173333 707.2c34.133333-24.746667 54.186667-77.013333 66.986667-151.466667 18.773333 27.733333 23.893333 69.12 16 123.946667 29.44-35.84 36.693333-106.666667 42.666667-177.92 48.213333 136.533333 18.56 256-62.72 326.613333 4.48-3.84-42.666667-14.506667-26.88-34.133333 34.986667-42.666667 45.44-132.693333 36.266666-134.4-33.493333 44.16-54.826667 51.84-72.32 47.36z" fill="#F39919" p-id="5896"></path><path d="M603.093333 794.24c85.333333-21.333333 136.533333-64 164.053334-120.96-1.493333 78.293333-30.933333 137.813333-102.826667 168.96-43.733333-11.52-60.586667-28.16-61.226667-48z" fill="#F39919" p-id="5897"></path><path d="M748.586667 866.773333l-21.333334 21.333334h23.893334a216.32 216.32 0 0 1-91.946667 23.04 281.386667 281.386667 0 0 1 89.386667-44.373334z" fill="#105292" p-id="5898"></path></svg>