<?xml version="1.0" standalone="no"?><!DOCTYPE svg PUBLIC "-//W3C//DTD SVG 1.1//EN" "http://www.w3.org/Graphics/SVG/1.1/DTD/svg11.dtd"><svg t="1563847629691" class="icon" viewBox="0 0 1024 1024" version="1.1" xmlns="http://www.w3.org/2000/svg" p-id="5649" xmlns:xlink="http://www.w3.org/1999/xlink" width="200" height="200"><defs><style type="text/css"></style></defs><path d="M963.072 501.248c-6.144-152.576-70.656-270.848-207.36-345.088-19.456-10.752-40.448-18.944-63.488-29.696 52.736-29.696 104.448-52.224 162.304-54.272 55.808-2.048 86.016 28.16 82.944 80.896-1.024 18.944-1.024 38.912-10.24 55.808-15.872 29.696-4.096 48.64 19.968 64.512 1.024 1.024 2.56 1.536 5.632 2.56 23.552-55.808 43.52-112.128 34.816-173.568-5.12-36.864-24.064-65.024-58.88-81.92-35.84-17.92-74.24-15.872-111.616-9.216-71.68 12.8-135.168 46.08-195.584 84.992-12.288 8.192-24.064 11.264-38.912 9.216-48.64-7.68-97.28-6.144-146.432 0-172.544 23.04-304.128 139.776-347.136 307.712-12.288 48.128-13.824 97.28-8.192 151.552 52.224-76.8 104.96-145.92 176.64-197.632l-9.216 12.288c-79.872 94.208-139.776 200.192-180.224 316.416-18.432 52.736-39.424 105.472-37.376 163.328 3.584 112.64 75.776 173.056 186.88 156.672 76.288-11.264 143.36-43.52 206.336-86.016 13.824-9.216 26.624-12.8 42.496-11.264 55.296 5.632 111.104 6.144 165.888-5.12 166.912-33.28 272.384-134.656 326.144-293.888 5.632-16.896 0.512-19.968-15.36-19.456-95.744 0.512-191.488 0.512-287.744 0-13.312 0-18.432 4.096-22.528 16.896-15.36 50.688-55.808 78.336-107.52 75.776-56.32-3.072-94.208-35.84-103.936-89.088-2.048-12.8 0-18.944 14.848-18.432 30.72 1.024 61.44 0.512 92.16 0.512 136.704 0 273.92-0.512 410.624 0.512 17.408 0 23.04-5.12 22.528-22.016 0.512-22.016 2.56-42.496 1.536-62.976z m-756.224 434.176c-44.032-4.096-60.928-21.504-62.464-65.536-1.024-35.84 9.728-68.608 26.624-102.4 53.248 61.952 118.784 102.912 197.632 129.536-54.272 23.552-105.472 43.52-161.792 38.4z m716.8-401.92c0 8.704-4.096 11.776-11.776 11.264-5.12-0.512-10.24 0-15.36 0-163.84 0-327.68 0.512-491.52-0.512-19.968 0-25.6 6.656-24.576 25.088 3.072 63.488 20.48 120.32 83.456 147.456 58.88 25.6 117.248 21.504 168.448-22.528 11.776-10.24 22.016-22.016 27.648-36.352 6.144-14.848 15.36-19.968 31.744-19.456 66.048 1.024 131.584 1.024 197.632 0 20.992-0.512 20.48 5.632 12.8 21.504-72.704 145.408-191.488 217.088-352.768 221.696-109.568 3.072-209.92-23.552-297.472-91.648-33.792-26.112-60.928-58.368-80.896-99.84-40.448 58.88-70.656 118.272-65.024 189.44 5.12 58.368 23.04 77.312 78.848 93.184 3.584 1.024 6.656 1.536 12.8 3.072-49.664 9.216-91.648-11.264-111.104-54.272-16.896-37.376-19.968-76.288-9.728-115.712 47.104-179.2 131.584-336.896 265.216-466.944 35.328-34.304 73.216-65.536 113.152-93.696 13.312-9.728 23.552-46.592 15.872-60.416-4.608-8.704-10.24-1.536-14.336 0.512-52.736 22.016-101.376 51.712-148.48 84.48-62.976 44.544-119.808 96.256-170.496 153.6-2.048 2.048-4.096 3.584-9.728 8.704 11.264-53.248 31.232-97.792 59.904-138.24 59.904-83.968 143.872-131.072 243.2-146.944 136.704-22.016 266.24-0.512 374.784 91.648 90.112 76.8 120.32 179.712 117.76 294.912z" fill="#2791DC" p-id="5650"></path><path d="M675.328 410.112c-12.288-72.192-54.272-110.592-128-118.784-91.136-10.24-160.768 47.104-167.424 138.24-1.536 17.408 0.512 28.672 23.552 27.136 38.4-2.048 251.904 12.288 259.584-17.92 23.04-1.024 14.336-17.92 12.288-28.672z m-65.536 6.656h-80.896c-30.72 0-61.44-0.512-92.16 0-12.288 0-15.36-2.56-11.264-14.848 11.776-34.304 33.28-57.344 69.12-66.56 61.44-15.36 113.664 4.608 134.144 52.736 11.264 26.624 9.728 28.672-18.944 28.672z" fill="#8F9893" p-id="5651"></path></svg>