<?xml version="1.0" standalone="no"?><!DOCTYPE svg PUBLIC "-//W3C//DTD SVG 1.1//EN" "http://www.w3.org/Graphics/SVG/1.1/DTD/svg11.dtd"><svg t="1563847625155" class="icon" viewBox="0 0 1024 1024" version="1.1" xmlns="http://www.w3.org/2000/svg" p-id="5531" xmlns:xlink="http://www.w3.org/1999/xlink" width="200" height="200"><defs><style type="text/css"></style></defs><path d="M995.992 507.584c0 322.536-199.688 516.416-493.616 516.416-274.768 0-474.368-195.256-474.368-504.608C28.008 226.392 230.304 0 516.048 0c284.36 0 479.944 207.088 479.944 507.584z m-489.576-348.8c-135.84 0-208.776 135.392-208.776 332 0 143.656 47.496 374.432 227.592 374.432 144.72 0 201.128-150.688 201.128-341.44 0-201.296-82.92-364.992-219.944-364.992z" fill="#E16B5A" p-id="5532"></path><path d="M489.816 159.568a165.224 165.224 0 0 0-15.4-0.784c-135.84 0-208.776 135.392-208.776 332 0 143.656 47.496 374.432 227.592 374.432 5.312 0 10.472-0.256 15.528-0.656-166.544-13.64-211.136-234.6-211.136-373.776 0.016-188.424 67.032-320.536 192.192-331.216z" fill="#BF5B4D" p-id="5533"></path><path d="M516.048 0c-5.168 0-10.232 0.232-15.344 0.376 275.28 7.968 463.288 212.632 463.288 507.208 0 316.416-192.24 508.864-477.04 516.072 5.136 0.144 10.232 0.344 15.424 0.344 293.928 0 493.616-193.872 493.616-516.416C995.992 207.088 800.408 0 516.048 0z" fill="#BF5B4D" p-id="5534"></path></svg>