<?xml version="1.0" standalone="no"?><!DOCTYPE svg PUBLIC "-//W3C//DTD SVG 1.1//EN" "http://www.w3.org/Graphics/SVG/1.1/DTD/svg11.dtd"><svg t="1563847633290" class="icon" viewBox="0 0 1024 1024" version="1.1" xmlns="http://www.w3.org/2000/svg" p-id="5766" xmlns:xlink="http://www.w3.org/1999/xlink" width="200" height="200"><defs><style type="text/css"></style></defs><path d="M16 512c0 275.2 220.8 496 496 496S1008 787.2 1008 512 787.2 16 512 16 16 236.8 16 512z" fill="#FFFFFF" p-id="5767"></path><path d="M512 1024C230.4 1024 0 793.6 0 512S230.4 0 512 0s512 230.4 512 512-230.4 512-512 512z m0-992C246.4 32 32 246.4 32 512s214.4 480 480 480 480-214.4 480-480S777.6 32 512 32z" fill="#C9D6E1" p-id="5768"></path><path d="M694.4 915.2c182.4-86.4 272-233.6 265.6-441.6C937.6 134.4 524.8-3.2 432 211.2c-44.8 195.2 220.8 172.8 326.4 316.8 92.8 131.2 70.4 259.2-64 387.2z" fill="#3EA1FC" p-id="5769"></path><path d="M326.4 108.8c-182.4 86.4-272 233.6-265.6 441.6 22.4 339.2 435.2 476.8 528 265.6 44.8-195.2-220.8-172.8-326.4-316.8-92.8-131.2-70.4-262.4 64-390.4z" fill="#3EA1FC" p-id="5770"></path></svg>