<?xml version="1.0" standalone="no"?><!DOCTYPE svg PUBLIC "-//W3C//DTD SVG 1.1//EN" "http://www.w3.org/Graphics/SVG/1.1/DTD/svg11.dtd"><svg t="1564067954223" class="icon" viewBox="0 0 1024 1024" version="1.1" xmlns="http://www.w3.org/2000/svg" p-id="17375" xmlns:xlink="http://www.w3.org/1999/xlink" width="200" height="200"><defs><style type="text/css"></style></defs><path d="M126.890701 758.45632v95.67232l90.60352 89.2928h569.5488L897.102541 847.74912v-89.2928H126.890701z" fill="#F4B61B" p-id="17376"></path><path d="M25.862861 507.15648a25.68192 25.68192 0 0 1-18.09408-7.64928 25.16992 25.16992 0 0 1 0-36.352L343.251661 132.096a248.92416 248.92416 0 0 1 347.76064 0l325.14048 320.84992a25.18016 25.18016 0 0 1 0 36.352 25.98912 25.98912 0 0 1-36.864 0l-325.13024-320.8192a195.7376 195.7376 0 0 0-274.0736 0L44.602061 499.5072a28.3648 28.3648 0 0 1-18.7392 7.64928zM791.845581 962.56H231.420621a126.34112 126.34112 0 0 1-127.34464-125.65504V387.24608a25.856 25.856 0 0 1 51.712 0v449.65888a76.51328 76.51328 0 0 0 75.63264 74.62912h560.4352a76.51328 76.51328 0 0 0 75.63264-74.62912V581.7856a25.856 25.856 0 0 1 51.712 0v255.11936A126.34112 126.34112 0 0 1 791.845581 962.56zM581.771981 690.85184h-146.7392a80.29184 80.29184 0 0 1-80.7936-79.72864V466.3296a80.30208 80.30208 0 0 1 80.7936-79.72864h146.7392A80.30208 80.30208 0 0 1 662.606541 466.3296v144.7936a80.29184 80.29184 0 0 1-80.83456 79.72864z m-146.7392-253.21472a28.7744 28.7744 0 0 0-29.09184 28.672V611.1232a28.7744 28.7744 0 0 0 29.09184 28.672h146.7392a29.63456 29.63456 0 0 0 29.09184-28.672V466.3296a28.7744 28.7744 0 0 0-29.09184-28.672h-146.7392z" fill="#222222" p-id="17377"></path></svg>