<?xml version="1.0" standalone="no"?><!DOCTYPE svg PUBLIC "-//W3C//DTD SVG 1.1//EN" "http://www.w3.org/Graphics/SVG/1.1/DTD/svg11.dtd"><svg t="1564068302748" class="icon" viewBox="0 0 1024 1024" version="1.1" xmlns="http://www.w3.org/2000/svg" p-id="33289" xmlns:xlink="http://www.w3.org/1999/xlink" width="200" height="200"><defs><style type="text/css"></style></defs><path d="M737.22368 446.99136a252.92288 252.92288 0 0 0 11.8016-76.09344V303.64672c-4.49536-153.2416-132.27008-273.88416-285.51168-269.57824-153.02144-3.96288-280.42752 116.5824-284.91776 269.57824v67.84a266.03008 266.03008 0 0 0 135.67488 228.87424C173.28128 649.91232 35.84 777.32864 35.84 910.64832c1.28 38.2208 33.152 68.2496 71.3728 67.24608h459.53536c-100.66432-75.43296-142.40768-206.42816-103.95136-326.1952 38.46656-119.7824 148.65408-201.984 274.42688-204.70784z" fill="#2EB5A5" p-id="33290"></path><path d="M847.488 701.11232a14.84288 14.84288 0 0 1-9.60512-6.7328 102.05696 102.05696 0 0 0-14.47936-18.37568 14.8224 14.8224 0 0 1-4.3008-10.54208l0.18944-28.18048-22.9888-10.97728-20.992 17.2032a14.88384 14.88384 0 0 1-11.24864 3.24096 99.29216 99.29216 0 0 0-24.45824-0.19456 14.86336 14.86336 0 0 1-10.91584-3.16416l-21.9904-17.63328-22.87104 11.21792 0.47104 27.13088a14.85824 14.85824 0 0 1-4.4544 10.8544 102.8608 102.8608 0 0 0-14.80704 18.24768 14.81216 14.81216 0 0 1-9.3184 6.51264l-27.54048 6.05696-5.62176 24.84736 21.40672 16.65024c3.2256 2.5088 5.2736 6.23616 5.6576 10.30144 0.74752 7.88992 2.44224 15.7184 5.02784 23.27552 1.28 3.7376 1.00864 7.82336-0.73216 11.36128l-12.48256 25.25696 15.88736 19.92192 26.38336-6.2976a14.82752 14.82752 0 0 1 11.56608 2.0224 101.51424 101.51424 0 0 0 22.4512 11.03872 14.83264 14.83264 0 0 1 8.4992 7.57248l12.21632 25.37984 25.472-0.25088 11.27424-24.65792a14.81728 14.81728 0 0 1 8.70912-7.86432 101.4528 101.4528 0 0 0 22.37952-10.82368 14.85312 14.85312 0 0 1 11.22304-2.0224l27.54048 6.05184 15.51872-20.1984-12.44672-24.07936a14.84288 14.84288 0 0 1-0.8192-11.70432c2.57024-7.3216 4.29056-14.92992 5.12512-22.60992a14.81216 14.81216 0 0 1 5.49888-9.984l22.03648-17.56672-5.90848-24.77568-26.55232-5.50912z m-96.19968 114.85184c-36.28544 0-65.80736-29.5168-65.80736-65.80224 0-36.28544 29.52192-65.80224 65.80736-65.80224 36.29056 0 65.80736 29.5168 65.80736 65.80224 0 36.28544-29.5168 65.80224-65.80736 65.80224z" fill="#FAC427" p-id="33291"></path><path d="M750.08 501.76c-131.48672 0-238.08 106.59328-238.08 238.08s106.59328 238.08 238.08 238.08 238.08-106.59328 238.08-238.08S881.56672 501.76 750.08 501.76z m155.69408 246.9376l-24.73472 19.71712a130.7648 130.7648 0 0 1-3.77856 16.71168l13.93664 26.96704a14.81728 14.81728 0 0 1-1.41312 15.82592l-26.98752 35.13344a14.75072 14.75072 0 0 1-14.93504 5.44768l-30.90944-6.79424a130.31936 130.31936 0 0 1-17.37728 8.41728l-12.62592 27.61216a14.8224 14.8224 0 0 1-13.33248 8.65792l-44.30336 0.43008h-0.14336a14.8224 14.8224 0 0 1-13.35296-8.39168l-13.71648-28.50304a131.10272 131.10272 0 0 1-17.5104-8.59136l-29.5424 7.05536a14.80192 14.80192 0 0 1-15.0272-5.1712l-27.6224-34.6368a14.81216 14.81216 0 0 1-1.69984-15.80032l14.01344-28.35968a131.81952 131.81952 0 0 1-3.79904-17.54624l-23.96672-18.64192a14.80704 14.80704 0 0 1-5.35552-14.96576l9.77408-43.2128a14.81216 14.81216 0 0 1 11.26912-11.20256l30.92992-6.80448a132.60288 132.60288 0 0 1 11.01824-13.59872l-0.53248-30.3872a14.82752 14.82752 0 0 1 8.28928-13.56288l39.77728-19.5072a14.80192 14.80192 0 0 1 15.7952 1.74592l24.68864 19.79904a125.51168 125.51168 0 0 1 18.7136 0.13312l23.50592-19.26144a14.81216 14.81216 0 0 1 15.77472-1.90976l39.97696 19.09248a14.81216 14.81216 0 0 1 8.43264 13.4656l-0.21504 31.64672a133.5296 133.5296 0 0 1 10.76224 13.63456l29.73184 6.1696a14.81728 14.81728 0 0 1 11.40224 11.06944l10.27584 43.09504a14.81216 14.81216 0 0 1-5.18656 15.02208z" fill="#FAC427" p-id="33292"></path><path d="M751.28832 713.98912c-19.94752 0-36.1728 16.22528-36.1728 36.16768 0 19.94752 16.22528 36.16768 36.1728 36.16768 19.94752 0 36.1728-16.22528 36.1728-36.16768s-16.22528-36.16768-36.1728-36.16768z" fill="#FAC427" p-id="33293"></path></svg>