<?xml version="1.0" standalone="no"?><!DOCTYPE svg PUBLIC "-//W3C//DTD SVG 1.1//EN" "http://www.w3.org/Graphics/SVG/1.1/DTD/svg11.dtd"><svg t="1563845164500" class="icon" viewBox="0 0 1024 1024" version="1.1" xmlns="http://www.w3.org/2000/svg" p-id="4340" xmlns:xlink="http://www.w3.org/1999/xlink" width="200" height="200"><defs><style type="text/css"></style></defs><path d="M738.08 340.32384V148.48384c0-19.26144-15.61728-34.88-34.88-34.88H92.8c-19.26144 0-34.88 15.61856-34.88 34.88v488.32c0 19.26272 15.61856 34.88 34.88 34.88h156.96V410.08384c0-38.52416 31.23456-69.76 69.76-69.76h418.56z m191.84 34.88H319.52c-19.26272 0-34.88 15.61856-34.88 34.88v488.32128c0 19.26144 15.61728 34.87872 34.88 34.87872H929.92c19.26272 0 34.88-15.61728 34.88-34.87872V410.08384c0-19.26144-15.61728-34.88-34.88-34.88" fill="#FFFFFF" p-id="4341" data-spm-anchor-id="a313x.7781069.0.i1" class="selected"></path><path d="M476.48 497.28384c-38.52544 0-69.76 31.23584-69.76 69.76128 0 38.52288 31.23456 69.75872 69.76 69.75872s69.76-31.23584 69.76-69.75872c0-38.52544-31.23456-69.76128-69.76-69.76128" fill="#F7D54A" p-id="4342"></path><path d="M755.52 724.00384l-17.44 17.44L650.88 662.9632l-113.35936 104.64-43.60064-43.59936-122.08 122.08128h505.76z" fill="#85AB70" p-id="4343"></path><path d="M197.44 567.04512h17.44v-17.44H197.44v17.44z m17.44-17.44H232.32v-17.44h-17.44v17.44z m34.88-104.64128H232.32v17.44h17.44v-17.44z m348.8-104.64h17.44v-17.44h-17.44v17.44z m-34.88 0H581.12v-17.44h-17.44v17.44z m-348.8 139.52H232.32v-17.44h-17.44v17.44z m-17.44-17.44h17.44v-17.44H197.44v17.44z m17.44-17.44H232.32v-17.44h-17.44v17.44z m0 139.52128H232.32v-17.44h-17.44v17.44zM197.44 427.52384h17.44v-17.44H197.44v17.44z m0 104.64128h17.44v-17.44H197.44v17.44z m17.44-17.44H232.32v-17.44128h-17.44v17.44128z m488.32-174.40128H720.64v-17.44h-17.44v17.44z m-34.88 0h17.44v-17.44h-17.44v17.44zM197.44 497.28384h17.44v-17.44H197.44v17.44z m436-156.96H650.88v-17.44h-17.44v17.44z m-313.92 0h17.44v-17.44h-17.44v17.44z m-69.76 279.04H232.32v17.44h17.44v-17.44z m0-34.87872H232.32v17.43872h17.44v-17.43872z m0 69.75872H232.32v17.44h17.44v-17.44z m-52.32 17.44h17.44v-17.44H197.44v17.44z m52.32-191.84H232.32v17.44h17.44v-17.44z m0 34.88128H232.32v17.44h17.44v-17.44z m0-104.64128H232.32v17.44h17.44v-17.44z m0 139.52128H232.32v17.44h17.44v-17.44z m104.64-209.28128H371.84v-17.44h-17.44v17.44z m104.64 0h17.44v-17.44h-17.44v17.44z m-244.16 279.04H232.32v-17.44h-17.44v17.44z m-17.44-17.44h17.44v-17.43872H197.44v17.43872z m296.48-261.6H511.36v-17.44h-17.44v17.44zM197.44 636.80384h17.44v-17.44H197.44v17.44z m331.36-296.48h17.44v-17.44h-17.44v17.44z m-104.64 0H441.6v-17.44h-17.44v17.44z m-209.28 313.92H232.32v-17.44h-17.44v17.44z m174.4-313.92h17.44v-17.44h-17.44v17.44z m-52.32-52.32h-17.44v17.44h17.44v-17.44z m174.4 34.88h17.44v-17.44H511.36v17.44z m-34.88 0h17.44v-17.44H476.48v17.44z m34.88-34.88h-17.44v17.44H511.36v-17.44z m34.88 0h-17.44v17.44h17.44v-17.44z m0 34.88h17.44v-17.44H546.24v17.44z m-69.76-34.88h-17.44v17.44h17.44v-17.44z m-69.76 0h-17.44v17.44h17.44v-17.44z m174.4 0h-17.44v17.44H581.12v-17.44z m-174.4 34.88h17.44v-17.44H406.72v17.44z m34.88 0h17.44v-17.44H441.6v17.44z m0-34.88h-17.44v17.44H441.6v-17.44z m139.52 34.88h17.44v-17.44H581.12v17.44z m104.64 0h17.44v-17.44H685.76v17.44z m34.88 0h17.44v-17.44H720.64v17.44z m-34.88-34.88h-17.44v17.44h17.44v-17.44z m34.88 0h-17.44v17.44H720.64v-17.44z m-104.64 34.88h17.44v-17.44H616v17.44z m0-34.88h-17.44v17.44h17.44v-17.44z m34.88 34.88h17.44v-17.44H650.88v17.44z m0-34.88h-17.44v17.44H650.88v-17.44z m-418.56 69.76h17.44v-17.44H232.32v17.44z m69.76-69.76h-17.44v17.44H302.08v-17.44z m-34.88 0h-17.44v17.44h17.44v-17.44z m17.44 17.44H267.2v17.44h17.44v-17.44z m-34.88 34.88h17.44v-17.44h-17.44v17.44z m-34.88 69.76H232.32v-17.44h-17.44v17.44z m-17.44-87.2h17.44v-17.44H197.44v17.44z m0 34.88h17.44v-17.44H197.44v17.44z m0 34.88h17.44v-17.44H197.44v17.44z m52.32-87.2H232.32v17.44h17.44v-17.44zM232.32 288.00384h-17.44v17.44H232.32v-17.44z m0 104.64h17.44v-17.44H232.32v17.44z m104.64-69.76h17.44v-17.44H336.96v17.44z m-34.88 0h17.44v-17.44H302.08v17.44z m-17.44 17.44H302.08v-17.44h-17.44v17.44zM232.32 322.88384h-17.44v17.44H232.32v-17.44z m139.52-34.88h-17.44v17.44H371.84v-17.44z m0 34.88h17.44v-17.44H371.84v17.44z m-104.64 34.88h6.28864a70.04416 70.04416 0 0 1 11.15136-8.02944v-9.41056H267.2v17.44z m-34.88 0h-17.44v17.44H232.32v-17.44z m17.44 17.44h9.40928a70.016 70.016 0 0 1 8.03072-11.1552v-6.2848h-17.44v17.44z" fill="" p-id="4344"></path><path d="M319.52 898.40512H929.92V410.08384H319.52v488.32128z m592.96-17.44H336.96V427.52384h575.52v453.44128zM110.24 165.92384H685.76v165.67936h17.44V148.48384H92.8v488.32h156.96v-17.44h-139.52v-453.44z" fill="" p-id="4345"></path><path d="M929.92 340.32384H772.96V148.48384c0-38.52416-31.23456-69.76-69.76-69.76H92.8c-38.52416 0-69.76 31.23584-69.76 69.76v488.32c0 38.52544 31.23584 69.76 69.76 69.76h156.96v191.84128c0 38.52544 31.23456 69.75872 69.76 69.75872H929.92c38.52544 0 69.76-31.23328 69.76-69.75872V410.08384c0-38.52416-31.23456-69.76-69.76-69.76m-680.16 69.76v261.6H92.8c-19.26144 0-34.88-15.61728-34.88-34.88v-488.32c0-19.26144 15.61856-34.88 34.88-34.88h610.4c19.26272 0 34.88 15.61856 34.88 34.88v191.84h-418.56c-38.52544 0-69.76 31.23584-69.76 69.76M964.8 898.40512c0 19.26144-15.61728 34.87872-34.88 34.87872H319.52c-19.26272 0-34.88-15.61728-34.88-34.87872V410.08384c0-19.26144 15.61728-34.88 34.88-34.88H929.92c19.26272 0 34.88 15.61856 34.88 34.88v488.32128z" fill="" p-id="4346" data-spm-anchor-id="a313x.7781069.0.i2" class="selected"></path></svg>