<?xml version="1.0" standalone="no"?><!DOCTYPE svg PUBLIC "-//W3C//DTD SVG 1.1//EN" "http://www.w3.org/Graphics/SVG/1.1/DTD/svg11.dtd"><svg t="1563439819017" class="icon" viewBox="0 0 1028 1024" version="1.1" xmlns="http://www.w3.org/2000/svg" p-id="14771" xmlns:xlink="http://www.w3.org/1999/xlink" width="200.78125" height="200"><defs><style type="text/css"></style></defs><path d="M141.63057778 38.71478518c-46.60337778 21.74824297-90.87658667 70.68178963-107.18776889 119.6153363-18.64135111 52.81716148-18.64135111 664.8748563 0 717.69201777 17.08790518 50.48699259 60.58439111 98.6438163 109.51793778 119.6153363l41.94304 18.64135112h671.08864l39.61287111-18.64135112c46.60337778-21.74824297 90.87658667-70.68178963 107.18776889-119.6153363 18.64135111-52.81716148 18.64135111-664.8748563 0-717.69201777-16.31118222-48.93354667-60.58439111-97.86709333-107.18776889-119.6153363l-39.61287111-18.6413511h-675.74897778l-39.61287111 18.6413511z m553.80347259 83.88608c31.84564148 13.20429037 64.46800592 45.82665482 64.46800593 63.69128297s-20.97152 43.49648592-35.7292563 43.49648593c-5.43706075 0-24.07841185-6.99050667-41.16631703-16.31118223-38.05942518-19.41807408-55.14733037-17.08790518-69.90506667 9.32067556-9.32067555 17.08790518-10.09739852 26.40858075-2.33016889 52.04043851 8.54395259 28.73874963 12.42756741 31.84564148 46.60337777 40.38959408 87.76969482 20.97152 146.80064 73.78868148 181.75317334 162.33509925 22.52496592 57.47749925 24.85513482 179.42300445 3.88361481 237.67722667-27.1853037 77.6722963-102.52743111 151.46097778-191.85057185 185.63678816-47.38010075 18.64135111-142.91702518 24.85513482-194.9574637 12.4275674-233.79361185-54.37060741-353.40894815-350.3020563-228.35655111-563.90087111 41.16631703-70.68178963 153.0144237-166.21871408 194.18074074-166.21871407 9.32067555 0 23.30168889 6.99050667 30.29219556 14.75773629 24.85513482 27.1853037 12.42756741 47.38010075-54.37060742 94.76020149-94.76020148 67.57489778-135.92651852 143.69374815-135.92651852 250.88151703 0 86.99297185 32.62236445 161.5583763 97.86709334 221.36604444 53.59388445 48.93354667 96.31364741 66.02145185 170.87905185 66.79817482 104.08087703 0 178.64628148-44.27320889 222.14276741-132.0429037 23.30168889-47.38010075 24.07841185-53.59388445 20.97152-119.6153363-3.10689185-59.80766815-6.2137837-74.56540445-26.40858074-106.41104592-21.74824297-34.95253333-88.54641778-83.10935703-100.19726222-72.23523556-2.33016889 3.10689185 2.33016889 32.62236445 11.65084444 66.02145186 8.54395259 33.39908741 15.53445925 67.57489778 15.53445926 76.11885036 0 62.91456-48.93354667 128.15928889-107.96449185 144.47047111-100.19726222 27.1853037-181.75317333-49.71026963-181.75317334-171.65577481 0-84.66280297 41.94304-148.35408592 119.6153363-183.30661926l27.96202667-12.4275674-3.10689185-66.79817483c-3.88361482-60.58439111-2.33016889-69.1283437 13.20429037-89.32314074 38.05942518-47.38010075 100.19726222-64.46800592 153.0144237-41.94304z" fill="#d81e06" p-id="14772"></path><path d="M514.4576 423.19265185c-24.85513482 15.53445925-49.71026963 63.69128297-49.71026963 98.6438163 0 29.51547259 20.19479703 70.68178963 38.83614815 80.77918815 34.17581037 18.64135111 85.43952592-13.20429037 85.43952593-52.81716148 0-11.65084445-6.2137837-48.1568237-13.20429037-81.55591112-15.53445925-66.02145185-20.97152-69.90506667-61.36111408-45.04993185z" fill="#d81e06" p-id="14773"></path></svg>