<?xml version="1.0" standalone="no"?><!DOCTYPE svg PUBLIC "-//W3C//DTD SVG 1.1//EN" "http://www.w3.org/Graphics/SVG/1.1/DTD/svg11.dtd"><svg class="icon" width="200px" height="161.51px" viewBox="0 0 1268 1024" version="1.1" xmlns="http://www.w3.org/2000/svg"><path fill="#21cff3" d="M911.704746 168.062743a159.284777 159.284777 0 0 1 150.136781 169.871784c-3.049332 29.945127-8.08587 62.04877-47.144731 60.849595-35.015927-1.096389-37.688375-29.020049-37.037394-57.423379 1.713108-54.819454-18.09042-91.651275-80.516073-86.340641-33.64544 2.843759-62.562702-4.214246-58.485506-43.136058 4.179983-40.395086 38.510667-45.808507 73.046923-43.821301z"  /><path fill="#21cff3" d="M548.971268 1024c-153.083327-3.97441-288.076233-26.758746-408.199363-104.054177C15.749287 839.429749-30.093482 729.174121 19.792222 595.037769A707.410798 707.410798 0 0 1 469.140438 154.357879c113.990203-39.19591 169.906047 9.079472 155.413153 129.33965-6.852432 55.915844 12.094542 53.311919 51.393239 37.962473a373.217699 373.217699 0 0 1 163.499023-28.780214c83.017211 5.927354 117.347895 45.431623 100.388126 127.866378-9.83324 47.727188 4.522605 66.605637 45.22605 86.717524 137.870928 68.147434 160.723788 187.311224 56.361251 309.318772-131.943575 154.179716-311.682861 199.337241-492.450012 207.217538z m-49.68013-61.945984c124.131802-0.548195 261.865682-57.252068 332.034583-136.671752 82.537541-93.364383 74.862818-206.326722-19.392382-285.540834-161.306245-135.438315-476.826468-116.491341-621.584089 37.688375-94.632083 100.525175-84.147863 218.626837 27.204154 301.815359 83.63393 62.322867 181.589443 76.541663 281.806258 82.708852z"  /><path fill="#21cff3" d="M913.691951 97.585481c-35.427072 4.317032-77.809363 12.265853-83.428357-36.797558C823.959357 5.968468 872.131953 5.146176 909.306395 1.445863c206.77213-20.557295 393.637945 181.589443 353.448433 382.776841-6.852432 34.947402-7.469151 86.991622-61.055168 80.344763-56.395514-6.852432-38.168045-55.196338-35.050188-91.7198 14.492893-166.377044-87.505554-277.420702-252.957521-275.262186z"  /><path fill="#21cff3" d="M498.84573 561.152493c105.253353 0.650981 184.467464 70.888407 181.589443 160.826575-3.426216 99.360261-104.773682 181.589443-221.813218 179.944859-102.03271-1.507535-176.484381-67.29088-176.038973-155.618726 0.411146-99.942718 100.799272-185.837951 216.262748-185.152708z m-11.169464 195.876764a56.738135 56.738135 0 0 0-58.245671-50.399636 68.524318 68.524318 0 0 0-77.021333 66.674161c-2.158516 35.975267 21.619422 53.448968 55.333387 53.825852a75.37675 75.37675 0 0 0 79.933617-70.100377z"  /></svg>