<?xml version="1.0" standalone="no"?><!DOCTYPE svg PUBLIC "-//W3C//DTD SVG 1.1//EN" "http://www.w3.org/Graphics/SVG/1.1/DTD/svg11.dtd"><svg t="1610388102073" class="icon" viewBox="0 0 1024 1024" version="1.1" xmlns="http://www.w3.org/2000/svg" p-id="3974" xmlns:xlink="http://www.w3.org/1999/xlink" width="200" height="200"><defs><style type="text/css"></style></defs><path d="M513.069212 1020.181384A507.72315 507.72315 0 1 1 995.894988 667.646778 30.548926 30.548926 0 0 1 958.167064 687.350835a29.174224 29.174224 0 0 1-19.398568-36.505966v-1.374702a430.434368 430.434368 0 0 0 21.536993-137.470167 446.930788 446.930788 0 1 0-447.541766 446.167064A441.584726 441.584726 0 0 0 830.319809 824.821002a30.548926 30.548926 0 0 1 43.379475 43.379475 501.76611 501.76611 0 0 1-360.630072 151.980907z" fill="#999899" p-id="3975"></path><path d="M513.832936 824.821002a183.293556 183.293556 0 0 1-181.76611-184.515513A35.742243 35.742243 0 0 1 366.587112 604.868735a35.131265 35.131265 0 0 1 24.74463 9.928401 34.367542 34.367542 0 0 1 10.692124 24.439141 113.183771 113.183771 0 0 0 111.045346 115.627685 112.725537 112.725537 0 0 0 114.405728-111.045346v-3.513127a36.047733 36.047733 0 0 1 35.131265-35.436754 35.436754 35.436754 0 0 1 24.74463 9.928401 34.367542 34.367542 0 0 1 10.692124 24.439141A187.875895 187.875895 0 0 1 513.98568 824.821002z" fill="#F8BE83" p-id="3976"></path><path d="M329.928401 401.565632m-68.735084 0a68.735084 68.735084 0 1 0 137.470167 0 68.735084 68.735084 0 1 0-137.470167 0Z" fill="#F8BE83" p-id="3977"></path><path d="M681.24105 401.565632m-68.735083 0a68.735084 68.735084 0 1 0 137.470167 0 68.735084 68.735084 0 1 0-137.470167 0Z" fill="#F8BE83" p-id="3978"></path></svg>