<?xml version="1.0" standalone="no"?><!DOCTYPE svg PUBLIC "-//W3C//DTD SVG 1.1//EN" "http://www.w3.org/Graphics/SVG/1.1/DTD/svg11.dtd"><svg class="icon" width="200px" height="200.00px" viewBox="0 0 1024 1024" version="1.1" xmlns="http://www.w3.org/2000/svg"><path fill="#ffffff" d="M512 1024C229.2224 1024 0 794.7776 0 512S229.2224 0 512 0s512 229.2224 512 512-229.2224 512-512 512z m0-25.6c268.6208 0 486.4-217.7792 486.4-486.4S780.6208 25.6 512 25.6 25.6 243.3792 25.6 512s217.7792 486.4 486.4 486.4z"  /><path fill="#ffffff" d="M640 324.864h-51.2c-12.8-3.328-28.8 3.328-38.4 13.312-6.4 9.9584-9.6 23.2448-9.6 36.5568v63.1552h96l-12.8 99.7376h-83.2V793.6H441.6V537.6H358.4v-99.712h83.2v-76.4672c-3.2-36.5568 9.6-69.8112 35.2-96.4096 25.6-23.2704 57.6-36.5568 89.6-33.2288 22.4-3.328 48 0 73.6 3.328v89.7536z"  /></svg>