<?xml version="1.0" standalone="no"?><!DOCTYPE svg PUBLIC "-//W3C//DTD SVG 1.1//EN" "http://www.w3.org/Graphics/SVG/1.1/DTD/svg11.dtd"><svg class="icon" width="200px" height="199.80px" viewBox="0 0 1025 1024" version="1.1" xmlns="http://www.w3.org/2000/svg"><path fill="#ffffff" d="M600.926316 479.851789h-191.326316v67.368422h113.178947c-8.084211 35.031579-32.336842 61.978947-64.673684 75.452631-5.389474 2.694737-13.473684 5.389474-18.863158 5.389474-2.694737 0-5.389474 2.694737-8.08421 2.694737h-26.947369c-5.389474 0-8.084211 0-13.473684-2.694737-2.694737 0-8.084211 0-10.778947-2.694737-2.694737 0-8.084211-2.694737-10.778948-2.694737-2.694737-2.694737-8.084211-2.694737-10.778947-5.389474s-5.389474-2.694737-8.084211-5.389473c-5.389474-2.694737-8.084211-5.389474-10.778947-8.084211-2.694737-2.694737-5.389474-2.694737-8.08421-5.389473l-10.778948-10.778948c-2.694737-2.694737-2.694737-5.389474-5.389473-5.389474-2.694737-5.389474-5.389474-10.778947-10.778948-13.473684 0-2.694737-2.694737-5.389474-2.694737-8.08421l-8.08421-16.168421c0-2.694737 0-5.389474-2.694737-5.389474-2.694737-5.389474-2.694737-13.473684-2.694737-18.863158v-29.642105c0-5.389474 2.694737-13.473684 2.694737-18.863158v-5.389474c2.694737-5.389474 5.389474-13.473684 8.08421-18.863158l2.694737-2.694736c2.694737-5.389474 5.389474-10.778947 10.778948-16.168422l2.694737-2.694736 13.473684-13.473685c2.694737 0 2.694737-2.694737 5.389473-2.694736 5.389474-2.694737 10.778947-8.084211 16.168421-10.778948 2.694737 0 5.389474-2.694737 8.084211-2.694737 5.389474-2.694737 13.473684-5.389474 18.863158-8.08421 24.252632-5.389474 51.2-5.389474 75.452631 2.694737 13.473684 5.389474 29.642105 10.778947 40.421053 21.557894 18.863158-16.168421 35.031579-35.031579 51.2-51.2-5.389474-5.389474-10.778947-8.084211-16.168421-13.473684-5.389474-2.694737-10.778947-5.389474-16.168421-10.778947-2.694737 0-2.694737-2.694737-5.389474-2.694737-2.694737-2.694737-8.084211-2.694737-10.778947-5.389474-2.694737 0-5.389474-2.694737-8.084211-2.694737s-5.389474-2.694737-8.08421-2.694736-5.389474-2.694737-8.084211-2.694737-5.389474-2.694737-8.08421-2.694737-8.084211-2.694737-10.778948-2.694737h-8.08421c-2.694737 0-8.084211 0-10.778947-2.694737h-43.11579c-5.389474 0-10.778947 2.694737-16.168421 2.694737h-2.694737c-5.389474 0-10.778947 2.694737-16.168421 5.389474h-2.694737c-35.031579 10.778947-67.368421 29.642105-91.621052 59.28421-32.336842 37.726316-48.505263 83.536842-48.505263 132.042106 0 10.778947 0 21.557895 2.694736 32.336842 0 5.389474 2.694737 10.778947 2.694737 16.168421s2.694737 10.778947 2.694737 16.168421c2.694737 5.389474 2.694737 10.778947 5.389474 13.473684 2.694737 5.389474 2.694737 10.778947 5.389473 13.473684 2.694737 5.389474 5.389474 8.084211 8.084211 10.778948 2.694737 5.389474 5.389474 8.084211 8.08421 13.473684 2.694737 2.694737 5.389474 5.389474 8.084211 10.778947 2.694737 5.389474 8.084211 8.084211 10.778947 13.473684l8.084211 8.084211 13.473684 13.473684c2.694737 2.694737 5.389474 2.694737 8.084211 5.389474 5.389474 2.694737 10.778947 8.084211 16.168421 10.778947 2.694737 2.694737 5.389474 2.694737 8.08421 2.694737 5.389474 2.694737 13.473684 5.389474 18.863158 8.084211 75.452632 26.947368 161.684211 5.389474 215.578947-56.589474 35.031579-48.505263 51.2-105.094737 45.810527-164.378948zM781.473684 477.157053v-56.589474h-56.589473v56.589474h-56.589474v56.589473h56.589474v56.589474h56.589473v-56.589474h56.589474v-56.589473h-56.589474z"  /><path fill="#ffffff" d="M512 1024c-282.947368 0-512-229.052632-512-512s229.052632-512 512-512 512 229.052632 512 512-229.052632 512-512 512z m0-970.105263c-253.305263 0-458.105263 204.8-458.105263 458.105263s204.8 458.105263 458.105263 458.105263 458.105263-204.8 458.105263-458.105263-204.8-458.105263-458.105263-458.105263z"  /></svg>