<?xml version="1.0" standalone="no"?><!DOCTYPE svg PUBLIC "-//W3C//DTD SVG 1.1//EN" "http://www.w3.org/Graphics/SVG/1.1/DTD/svg11.dtd"><svg class="icon" width="200px" height="200.00px" viewBox="0 0 1024 1024" version="1.1" xmlns="http://www.w3.org/2000/svg"><path fill="#ffffff" d="M512 1011.809524C236.495238 1011.809524 12.190476 787.504762 12.190476 512S236.495238 12.190476 512 12.190476 1011.809524 236.495238 1011.809524 512 787.504762 1011.809524 512 1011.809524z m0-975.238095C248.685714 36.571429 36.571429 248.685714 36.571429 512S248.685714 987.428571 512 987.428571 987.428571 775.314286 987.428571 512 775.314286 36.571429 512 36.571429z"  /><path fill="#ffffff" d="M663.161905 412.038095c14.628571-9.752381 26.819048-24.380952 34.133333-41.447619-14.628571 7.314286-31.695238 14.628571-48.761905 17.066667-14.628571-14.628571-34.133333-24.380952-53.638095-24.380953-41.447619 0-75.580952 34.133333-75.580952 73.142858 0 4.87619 0 12.190476 2.438095 17.066666-63.390476-2.438095-117.028571-31.695238-153.6-78.019047-7.314286 9.752381-9.752381 24.380952-9.752381 36.571428 0 26.819048 12.190476 48.761905 34.133333 60.952381-12.190476 0-24.380952-4.87619-34.133333-9.752381 0 36.571429 26.819048 65.828571 60.952381 73.142857-7.314286 2.438095-12.190476 2.438095-19.504762 2.438096-4.87619 0-9.752381 0-14.628571-2.438096 9.752381 29.257143 36.571429 51.2 70.704762 51.2-26.819048 19.504762-58.514286 31.695238-92.64762 31.695238h-17.066666c34.133333 21.942857 73.142857 34.133333 114.590476 34.133334 138.971429 0 214.552381-112.152381 214.552381-209.676191v-9.752381c14.628571-9.752381 26.819048-24.380952 36.571429-39.009523-19.504762 12.190476-31.695238 14.628571-48.761905 17.066666z"  /></svg>