<?xml version="1.0" standalone="no"?><!DOCTYPE svg PUBLIC "-//W3C//DTD SVG 1.1//EN" "http://www.w3.org/Graphics/SVG/1.1/DTD/svg11.dtd"><svg class="icon" width="200px" height="200.00px" viewBox="0 0 1024 1024" version="1.1" xmlns="http://www.w3.org/2000/svg"><path d="M0 121.450667V320h64V14.506667a121.386667 121.386667 0 0 0-64 106.944zM902.272 0H320v320h704V121.450667C1024 54.378667 969.514667 0 902.272 0z" fill="#8E6151" /><path d="M121.749333 0C100.842667 0 81.173333 5.269333 64 14.506667V320h64V0h-6.250667z" fill="#FA3756" /><path d="M128 0h64v320H128z" fill="#FEC849" /><path d="M192 0h64v320H192z" fill="#71C997" /><path d="M256 0h64v320h-64z" fill="#4892FC" /><path d="M0 902.549333C0 969.621333 54.506667 1024 121.749333 1024h780.522667C969.514667 1024 1024 969.6 1024 902.549333V320H0v582.549333z" fill="#E9E2D6" /><path d="M896 256h-85.333333a42.666667 42.666667 0 0 1-42.666667-42.666667V128a42.666667 42.666667 0 0 1 42.666667-42.666667h85.333333a42.666667 42.666667 0 0 1 42.666667 42.666667v85.333333a42.666667 42.666667 0 0 1-42.666667 42.666667z" fill="#1A1A1A" /><path d="M853.333333 170.666667m-42.666666 0a42.666667 42.666667 0 1 0 85.333333 0 42.666667 42.666667 0 1 0-85.333333 0Z" fill="#37373A" /><path d="M512 512m-277.333333 0a277.333333 277.333333 0 1 0 554.666666 0 277.333333 277.333333 0 1 0-554.666666 0Z" fill="#E9E2D6" /><path d="M512 512m-234.666667 0a234.666667 234.666667 0 1 0 469.333334 0 234.666667 234.666667 0 1 0-469.333334 0Z" fill="#1A1A1A" /><path d="M512 512m-170.666667 0a170.666667 170.666667 0 1 0 341.333334 0 170.666667 170.666667 0 1 0-341.333334 0Z" fill="#37373A" /><path d="M512 512m-106.666667 0a106.666667 106.666667 0 1 0 213.333334 0 106.666667 106.666667 0 1 0-213.333334 0Z" fill="#1A1A1A" /></svg>