<?xml version="1.0" standalone="no"?><!DOCTYPE svg PUBLIC "-//W3C//DTD SVG 1.1//EN" "http://www.w3.org/Graphics/SVG/1.1/DTD/svg11.dtd"><svg t="1563847405814" class="icon" viewBox="0 0 1024 1024" version="1.1" xmlns="http://www.w3.org/2000/svg" p-id="4461" xmlns:xlink="http://www.w3.org/1999/xlink" width="200" height="200"><defs><style type="text/css"></style></defs><path d="M379 510.8c-26.6 12.4-70.9 14.7-90.3 41.3 19.6 14.7 48.3 14.2 74.8 15.5 108.9 4.9 245.1-4.4 338-20.6 3.1 6.7-12.9 18.3-23.2 25.8-58.6 42.8-240.7 54.9-366.3 46.4-42.1-2.8-138.3-13.9-139.3-51.6-1.3-45.7 116.6-50.6 165.1-54.2 9.4-0.7 27.3-4.6 41.2-2.6z m-54.2 116.1c12.1 1.5-8.5 8.8-5.2 18C364 688.8 502 676.4 569.8 663c14.2-2.9 28.4-11.4 38.7-10.3 25.8 2.3 42.3 32.3 64.5 36.1-78.4 35.4-229.9 52.1-340.6 30.9-28.6-5.4-78.4-20.9-80-43.9-2.1-31.1 49.5-44.3 72.4-48.9z m33.6 105.8c8 2.6-2.8 7-2.6 10.3 23.5 40.8 139.6 26.3 198.7 12.9 11.9-2.8 23.7-11.1 33.5-10.3 29.9 2 41.3 33.3 67.1 38.7-82.3 50.3-281.7 70.7-363.8 7.7-3.9-45.9 33-51 67.1-59.3z m-74.8 77.4c-24.5 6.2-88-2.6-90.3 30.9-0.8 12.9 21.7 28.1 36.1 33.5 84.1 31.7 253.1 36.6 392.1 20.6 64.5-7.5 185.8-29.2 170.3-95.5 19.4 2.3 36.6 14.7 38.7 33.5 7.7 71.2-155.8 101.1-221.9 108.4-143.7 15.7-323.3 12.6-433.4-25.8-35.9-12.4-79.2-35.4-77.4-69.7 3.1-57.6 142.4-73.6 185.8-35.9zM502.9 1024c-96.7-10.6-189.9-24.8-268.3-59.3 205.1 49.3 504.1 45.7 647.6-59.3 7.7-5.7 15-16.8 25.8-15.5-36.2 108.3-175 115.8-294.2 134.1H502.9z m219.3-487.3c53.2-45.4 143.2-27.6 147 49 4.4 89.8-93.9 140.1-165.1 144.5 33-31.5 120.2-82 103.2-154.8-7-29.4-43.6-47.2-85.1-38.7z" fill="#0277BA" p-id="4462"></path><path d="M569.9 0c18.1 17 30.9 48.8 30.9 82.6 0 99.8-105.8 157.6-157.4 224.5-11.4 15-26 37.9-25.8 61.9 0.5 54.4 56.8 115.3 77.4 160-36.1-23.7-80-55.5-110.9-92.9-30.9-37.1-61.9-97.5-33.5-149.6 42.6-78.4 169.3-125.1 214.1-209 10.9-20.4 19.4-51.6 5.2-77.5z" fill="#DE4E38" p-id="4463"></path><path d="M737.6 175.5c-29.7 20.9-58.6 38.7-90.3 64.5-24 19.6-67.3 46.4-69.7 82.6-3.6 54.9 81 105.8 36.1 175.4-17 26.6-45.9 37.9-82.6 54.2-4.4-8 9.5-14.7 15.5-23.2 56.3-81.5-58.6-108.6-43.9-209 14.3-97 128.6-130.9 234.9-144.5z" fill="#DE4E38" p-id="4464"></path></svg>