<?xml version="1.0" standalone="no"?><!DOCTYPE svg PUBLIC "-//W3C//DTD SVG 1.1//EN" "http://www.w3.org/Graphics/SVG/1.1/DTD/svg11.dtd"><svg class="icon" width="200px" height="200.00px" viewBox="0 0 1024 1024" version="1.1" xmlns="http://www.w3.org/2000/svg"><path fill="#ffffff" d="M224 322.6h576c16.6 0 30-13.4 30-30s-13.4-30-30-30H224c-16.6 0-30 13.4-30 30 0 16.5 13.5 30 30 30zM290.1 178.4h443.8c16.6 0 30-13.4 30-30s-13.4-30-30-30H290.1c-16.6 0-30 13.4-30 30s13.4 30 30 30zM629.6 613.9H394.4c-16.6 0-30 13.4-30 30s13.4 30 30 30h235.2c16.6 0 30-13.4 30-30s-13.4-30-30-30z"  /><path fill="#ffffff" d="M850.3 403.9H173.7c-33 0-60 27-60 60v360c0 33 27 60 60 60h676.6c33 0 60-27 60-60v-360c0-33-27-60-60-60z m-0.1 419.8l-0.1 0.1H173.9l-0.1-0.1V464l0.1-0.1h676.2l0.1 0.1v359.7z"  /></svg>