<?xml version="1.0" standalone="no"?><!DOCTYPE svg PUBLIC "-//W3C//DTD SVG 1.1//EN" "http://www.w3.org/Graphics/SVG/1.1/DTD/svg11.dtd"><svg class="icon" width="200px" height="200.00px" viewBox="0 0 1024 1024" version="1.1" xmlns="http://www.w3.org/2000/svg"><path fill="#ffffff" d="M780.8 115.2H243.2C172.8 115.2 115.2 172.8 115.2 243.2v537.6c0 70.4 57.6 128 128 128h537.6c70.4 0 128-57.6 128-128V243.2c0-70.4-57.6-128-128-128z m89.6 665.6c0 49.92-39.68 89.6-89.6 89.6H243.2c-49.92 0-89.6-39.68-89.6-89.6V243.2c0-49.92 39.68-89.6 89.6-89.6h537.6c49.92 0 89.6 39.68 89.6 89.6v537.6z"  /><path fill="#ffffff" d="M512 328.96c-101.12 0-183.04 81.92-183.04 183.04S410.88 695.04 512 695.04 695.04 613.12 695.04 512 613.12 328.96 512 328.96z m0 327.68c-79.36 0-144.64-65.28-144.64-144.64 0-79.36 65.28-144.64 144.64-144.64S656.64 432.64 656.64 512c0 79.36-65.28 144.64-144.64 144.64z"  /><path fill="#ffffff" d="M736 288m-38.4 0a38.4 38.4 0 1 0 76.8 0 38.4 38.4 0 1 0-76.8 0Z"  /></svg>