<?xml version="1.0" standalone="no"?><!DOCTYPE svg PUBLIC "-//W3C//DTD SVG 1.1//EN" "http://www.w3.org/Graphics/SVG/1.1/DTD/svg11.dtd"><svg class="icon" width="200px" height="199.22px" viewBox="0 0 1028 1024" version="1.1" xmlns="http://www.w3.org/2000/svg"><path fill="#ffffff" d="M116.93928297 7.16243753c-49.71026963 23.19812583-96.93502578 75.39390894-114.33362015 127.58969205-19.88410785 56.33830558-19.88410785 709.19984672 0 765.53815229 18.22709886 53.8527921 64.62335052 105.22007072 116.81913363 127.58969205l44.73924266 19.88410786h715.82788267l42.25372919-19.88410786c49.71026963-23.19812583 96.93502578-75.39390894 114.33362014-127.58969205 19.88410785-56.33830558 19.88410785-709.19984672 0-765.53815229-17.39859437-52.19578311-64.62335052-104.39156622-114.33362014-127.58969205l-42.25372919-19.88410784h-720.79890963l-42.25372918 19.88410784z m590.72370409 89.47848533c33.96868425 14.08457639 68.76587298 48.88176514 68.76587299 67.9373685s-22.36962133 46.39625165-38.11120672 46.39625166c-5.79953147 0-25.68363931-7.45654045-43.91073816-17.39859438-40.59672019-20.71261235-58.82381906-18.22709886-74.56540445 9.94205393-9.94205392 18.22709886-10.77055842 28.1691528-2.48551348 55.50980108 9.11354943 30.65466627 13.2560719 33.96868425 49.71026962 43.08223368 93.62100781 22.36962133 156.58734933 78.70792691 193.87005156 173.1574392 24.02663031 61.30933253 26.51214381 191.38453808 4.14252247 253.52237512-28.99765728 82.85044939-109.36259318 161.5583763-204.64060998 198.01257404-50.53877413 19.88410785-152.44482686 26.51214381-207.95462794 13.25607189-249.37985264-57.99531457-376.96954469-373.65552672-243.58032119-601.49426252 43.91073817-75.39390894 163.21538528-177.29996169 207.12612346-177.29996167 9.94205392 0 24.85513482 7.45654045 32.31167526 15.74158537 26.51214381 28.99765728 13.2560719 50.53877413-57.99531458 101.07754826-101.07754825 72.07989097-144.98828642 153.27333136-144.98828642 267.6069515 0 92.79250331 34.79718875 172.32893472 104.39156623 236.12378073 57.16681008 52.19578311 102.73455724 70.42288197 182.27098864 71.25138648 111.01960217 0 190.55603358-47.22475615 236.95228524-140.84576395 24.85513482-50.53877413 25.68363931-57.16681008 22.36962133-127.58969205-3.31401797-63.79484603-6.62803595-79.53643141-28.16915279-113.50511565-23.19812583-37.28270222-94.4495123-88.64998083-106.8770797-77.05091793-2.48551348 3.31401797 2.48551348 34.79718875 12.4275674 70.42288198 9.11354943 35.62569324 16.57008987 72.07989097 16.57008988 81.19344039 0 67.108864-52.19578311 136.70324148-115.16212464 154.10183585-106.8770797 28.99765728-193.87005155-53.02428761-193.87005156-183.09949313 0-90.30698983 44.73924267-158.24435831 127.58969205-195.52706055l29.82616178-13.25607189-3.31401797-71.25138649c-4.14252247-64.62335052-2.48551348-73.73689995 14.08457639-95.27801678 40.59672019-50.53877413 106.8770797-68.76587298 163.21538528-44.73924267z"  /><path fill="#ffffff" d="M514.62144 417.27216197c-26.51214381 16.57008987-53.02428761 67.9373685-53.02428761 105.22007072 0 31.48317076 21.54111683 75.39390894 41.4252247 86.16446736 36.45419773 19.88410785 91.13549431-14.08457639 91.13549432-56.33830558 0-12.42756741-6.62803595-51.36727861-14.08457639-86.99297186-16.57008987-70.42288197-22.36962133-74.56540445-65.45185502-48.05326064z"  /></svg>