<?xml version="1.0" standalone="no"?><!DOCTYPE svg PUBLIC "-//W3C//DTD SVG 1.1//EN" "http://www.w3.org/Graphics/SVG/1.1/DTD/svg11.dtd"><svg t="1563847508739" class="icon" viewBox="0 0 1024 1024" version="1.1" xmlns="http://www.w3.org/2000/svg" p-id="5414" xmlns:xlink="http://www.w3.org/1999/xlink" width="200" height="200"><defs><style type="text/css"></style></defs><path d="M896.2 720.7c-21 46.5-31.1 67.3-58.1 108.4-37.7 57.5-90.9 128.9-156.8 129.6-58.6 0.5-73.6-38.1-153.1-37.7-79.5 0.4-96.1 38.3-154.7 37.8-65.9-0.6-116.3-65.2-154-122.6C113.9 675.6 102.9 487.1 168 386.9 214.2 315.7 287.2 274 355.8 274c69.9 0 113.8 38.3 171.5 38.3 56 0 90.2-38.4 170.9-38.4 61 0 125.7 33.2 171.8 90.7-150.9 82.8-126.4 298.4 26.2 356.1z" fill="#141414" p-id="5415"></path><path d="M637 209.8c29.3-37.7 51.6-90.8 43.6-145.2-47.9 3.3-104 33.8-136.7 73.5-29.7 36.1-54.2 89.6-44.7 141.6 52.2 1.7 106.4-29.6 137.8-69.9z" fill="#141414" p-id="5416"></path></svg>