<?xml version="1.0" standalone="no"?><!DOCTYPE svg PUBLIC "-//W3C//DTD SVG 1.1//EN" "http://www.w3.org/Graphics/SVG/1.1/DTD/svg11.dtd"><svg t="1563847504788" class="icon" viewBox="0 0 1024 1024" version="1.1" xmlns="http://www.w3.org/2000/svg" p-id="5290" xmlns:xlink="http://www.w3.org/1999/xlink" width="200" height="200"><defs><style type="text/css"></style></defs><path d="M839.73005 769.44c9.3-20 13.6-48 13.6-86.78 0-138.52-63.82-218.44-115.08-282.66-31.04-38.9-55.58-69.62-55.58-101.34v-10c0.32-58.88 1.02-181.48-64-246.94C591.05005 14 555.19005 0 511.99005 0c-89.62 0-149.32 43.54-149.32 256 0 58.48-24.62 106.38-50.66 157.08-11.4 22.24-23.22 45.24-33.12 69.54C259.19005 531.08 213.33005 649.68 213.33005 704a21.4 21.4 0 0 0 2.44 10l151 288a21.4 21.4 0 0 0 16.38 11.1 21.4 21.4 0 0 0 18.64-7.06c9.48-10.56 72.32-24.56 110.2-24.56h144.74a21.4 21.4 0 0 0 14.88-6l175.26-170.68a21.34 21.34 0 0 0-7.14-35.18z" fill="#1A1A1A" p-id="5291"></path><path d="M688.19005 717.3c-0.52-103.88-14.64-220.72-96.72-388.52C550.85005 356.26 476.29005 378 467.33005 378c-16.16 0-51.42-11.54-77.34-34.4-10.64 31.42-25.38 60.52-40 89-11 21.4-22.36 43.54-31.54 66.12C292.65005 562 263.19005 645.46 257.33005 689.78c18 12 30.64 38 44.54 67.14 14.4 30.12 30.7 64.26 51.72 78.92 38.48 26.78 58.42 64.98 63.64 99.68 14.64 1.46 33.1 2.72 54 2.72 52 0 122.6-10.56 174.82-42.24 2.9-56.44 12.82-146.96 42.14-178.7z" fill="#FFFFFF" p-id="5292"></path><path d="M892.85005 813.84c-8.84-5.8-18-11.8-24.44-18.26-3.76-3.76-2-21.2-1.12-30.58 1.76-18 3.6-36.58-8.5-50-4.56-5.04-12.94-11.06-26.8-11.06-11.4 0-19.74 9.04-20.24 20.44 0 0.3 0.12 0.58 0.12 0.9H725.33005A21.32 21.32 0 0 0 703.99005 704c-63.26 0-64 232.32-64.24 237.4-1.2 12.72-4 42.58 15.12 63.54 11.52 12.64 28 19.06 49.12 19.06 55.38 0 82.24-28.54 108.2-56.12 4.36-4.68 8.84-9.42 13.56-14.12 10.8-10.82 32-18.54 50.62-25.34 30.62-11.2 62.3-22.76 62.3-53.76s-25.34-47.44-45.82-60.82zM353.51005 835.84c-21.02-14.66-37.32-48.8-51.72-78.92-19.04-39.84-35.5-74.26-67.12-74.26-40 0-48.66 35.88-53.32 55.16-1.3 5.3-3.24 13.3-3.44 14.24-3.16 2-15.08 4.32-22.96 5.88C128.91005 763.1 85.33005 771.72 85.33005 810.66a162.48 162.48 0 0 0 3.54 30.98C92.17005 859.4 95.33005 876.14 86.01005 912a20.8 20.8 0 0 0-0.68 5.34c0 51.28 79.66 58 127.28 61.88 8 0.68 14.5 1.18 18.72 1.84 6.56 1.04 20.32 7.38 33.6 13.5C293.33005 1007.68 328.77005 1024 362.67005 1024c24.36 0 43.86-15.76 52.16-42.12 12.9-41.1-4.18-106.28-61.32-146.04z" fill="#FDB515" p-id="5293"></path><path d="M831.99005 661.34a20.64 20.64 0 0 0-10.92 3.44l-142.46-233.1a1140 1140 0 0 0-62.32-142.78 21.32 21.32 0 1 0-38 19.54c96.32 187.16 104.3 304 104.34 415.7-0.26 4.48-1.78 44.44 21.2 68.76a57.3 57.3 0 0 0 42.76 17.76h14.78c21.7 0 45.16-1.66 63.5-19.86 19.72-19.36 28.46-52.8 28.46-108.14a21.32 21.32 0 0 0-21.34-21.32z" fill="#1A1A1A" p-id="5294"></path><path d="M554.67005 129.78c-24.74 0-42.68 26.54-42.68 63.12s18 63.1 42.68 63.1S597.33005 229.46 597.33005 192.9s-18-63.12-42.66-63.12z" fill="#FFFFFF" p-id="5295"></path><path d="M535.31005 208.56a37.9 19.36 90 1 0 38.72 0 37.9 19.36 90 1 0-38.72 0Z" p-id="5296"></path><path d="M426.67005 129.78c-24.74 0-42.68 26.54-42.68 63.12s18 63.1 42.68 63.1S469.33005 229.46 469.33005 192.9s-18-63.12-42.66-63.12z" fill="#FFFFFF" p-id="5297"></path><path d="M407.71005 207.82a37.14 18.96 90 1 0 37.92 0 37.14 18.96 90 1 0-37.92 0Z" p-id="5298"></path><path d="M494.85005 213.76a21.16 21.16 0 0 0-4.18-0.42c-45.88 0-128 43.02-128 85.32 0 40 80.68 85.34 106.66 85.34 12.6 0 149.34-47.48 149.34-85.34 0-55.8-94.78-79.1-123.82-84.9z" fill="#FDB515" p-id="5299"></path></svg>