<?xml version="1.0" standalone="no"?><!DOCTYPE svg PUBLIC "-//W3C//DTD SVG 1.1//EN" "http://www.w3.org/Graphics/SVG/1.1/DTD/svg11.dtd"><svg t="1563847477485" class="icon" viewBox="0 0 1135 1024" version="1.1" xmlns="http://www.w3.org/2000/svg" p-id="4933" xmlns:xlink="http://www.w3.org/1999/xlink" width="221.6796875" height="200"><defs><style type="text/css"></style></defs><path d="M1071.968696 886.447761H674.595562c0 0.030567 3.820896 51.58209 3.820895 76.417911 0 20.143761 91.701493 34.38806 91.701493 34.388059h-412.656717s91.701493-13.95391 91.701493-34.388059c0-24.499582-3.820896-76.387343-3.820896-76.417911H63.252278a61.134328 61.134328 0 0 1-61.134328-61.134328V61.134328a61.134328 61.134328 0 0 1 61.134328-61.134328h1008.716418a61.134328 61.134328 0 0 1 61.134328 61.134328v764.179105a61.134328 61.134328 0 0 1-61.134328 61.134328z m-301.850746 133.731343h-412.656717v-22.925373h412.656717v22.925373z" fill="#808080" p-id="4934"></path><path d="M63.252278 45.850746h1008.716418a15.283582 15.283582 0 0 1 15.283582 15.283582v641.910448a15.283582 15.283582 0 0 1-15.283582 15.283582H63.252278a15.283582 15.283582 0 0 1-15.283582-15.283582V61.134328a15.283582 15.283582 0 0 1 15.283582-15.283582z" fill="#FFFFFF" p-id="4935"></path><path d="M671.982069 391.015164c-0.504358-46.645493 40.822448-69.020657 42.687045-70.151642-23.231045-31.637015-59.407284-35.977552-72.291344-36.466626-30.765851-2.903881-60.064478 16.888358-75.669014 16.888358-15.589254 0-39.691463-16.460418-65.215045-16.047761a97.92191 97.92191 0 0 0-81.767164 46.186985c-34.861851 56.335284-8.925612 139.829493 25.049791 185.55797 16.59797 22.359881 36.405493 47.501373 62.387582 46.584358 25.034507-0.932299 34.495045-15.084896 64.741253-15.084896 30.276776 0 38.774448 15.084896 65.260896 14.611105 26.929672-0.458507 44.001433-22.772537 60.477134-45.208836 19.058627-25.966806 26.914388-51.123582 27.388179-52.392119-0.611343-0.259821-52.514388-18.783522-53.049313-74.476896z m-49.778627-136.879761c13.801075-15.589254 23.12406-37.230806 20.586985-58.79594-19.88394 0.733612-43.955582 12.303284-58.230448 27.877253-12.777075 13.816358-23.964657 35.809433-20.984358 56.977194 22.191761 1.62006 44.826746-10.499821 58.627821-26.058507z" fill="#808080" p-id="4936"></path><path d="M571.431382 775.641791a30.567164 30.567164 0 1 1 0 61.134328 30.567164 30.567164 0 0 1 0-61.134328z" fill="#FFFFFF" p-id="4937"></path></svg>