<?xml version="1.0" standalone="no"?><!DOCTYPE svg PUBLIC "-//W3C//DTD SVG 1.1//EN" "http://www.w3.org/Graphics/SVG/1.1/DTD/svg11.dtd"><svg t="1563847497575" class="icon" viewBox="0 0 1161 1024" version="1.1" xmlns="http://www.w3.org/2000/svg" p-id="5171" xmlns:xlink="http://www.w3.org/1999/xlink" width="226.7578125" height="200"><defs><style type="text/css"></style></defs><path d="M1133.454148 142.267389c-219.467479 90.737524-324.990923 39.728429-420.098374-24.277376L605.085328 493.53774c95.014333 64.371629 209.723272 117.296308 420.284612 23.033576l108.084208-374.303927z" fill="#91C300" p-id="5172"></path><path d="M419.978651 897.227269c-95.320295-64.152135-198.941456-116.917182-418.92774-25.953513L108.769296 495.020988c220.032842-90.976972 325.735872-39.495632 420.963048 25.048931l-109.753693 377.150699z" fill="#00B4F1" p-id="5173"></path><path d="M548.023518 452.153128c-57.387726-38.644262-119.105472-74.714456-206.756776-75.379589-57.833366-0.44564-126.674692 15.98316-214.066594 52.119868L235.50385 53.611733C455.390363-37.305377 561.006925 14.149357 656.167588 78.647361L548.023518 452.153128z" fill="#F8682C" p-id="5174"></path><path d="M586.827411 556.27314c95.200571 64.098924 200.95016 115.154578 420.650436 24.34389l-108.2904 374.031222c-219.740184 90.883854-325.270279 39.415816-420.371079-25.075537l108.011043-373.299575z" fill="#FFC300" p-id="5175"></path></svg>